<svg width="1451" height="101" xmlns="http://www.w3.org/2000/svg"><title>Group 11</title><g fill-rule="nonzero" fill="#8D949C" opacity=".3"><path d="M332.289 81.318v-.002-.01l-.002-.038-.003-.019-.004-.028-.007-.028-.005-.018a.495.495 0 0 0-.013-.037c0-.003-.001-.006-.003-.008v-.003a.093.093 0 0 0-.002-.004l-4.398-10.8a.491.491 0 0 0-.062-.11 1.475 1.475 0 0 0-.879-2.652c-.784 0-1.427.622-1.465 1.4l-7.113 2.03a1.955 1.955 0 0 0-2.222-.899c-.503.143-.92.475-1.174.933a1.96 1.96 0 0 0-.248 1.004l-7.127 2.033a1.463 1.463 0 0 0-2.65.868c0 .463.213.876.546 1.146l-4.42 10.942v.003l-.002.005-.004.01a.47.47 0 0 0-.011.034l-.005.02-.007.026-.004.029-.003.019a.49.49 0 0 0-.002.036v.021c.006 2.975 2.416 5.393 5.378 5.393s5.373-2.42 5.377-5.395v-.008-.01c0-.012 0-.025-.002-.038l-.003-.019c0-.01-.002-.019-.004-.028l-.007-.029-.004-.018a.494.494 0 0 0-.013-.036l-.003-.009-.001-.002a.094.094 0 0 0-.002-.004l-4.397-10.8a.491.491 0 0 0-.062-.11c.338-.255.563-.654.585-1.105l7.114-2.029c.07.12.153.231.245.332a.5.5 0 0 0-.023.15v20.14c-.809 0-1.467.662-1.467 1.474v.983h-2.444c-.809 0-1.467.66-1.467 1.473v.983a.49.49 0 0 0 .489.491H323a.49.49 0 0 0 .489-.491v-.983c0-.812-.658-1.473-1.467-1.473h-2.444v-.983c0-.812-.658-1.474-1.467-1.474v-20.14a.493.493 0 0 0-.023-.148 1.982 1.982 0 0 0 .512-1.373l7.127-2.032c.076.104.165.198.264.279l-4.419 10.942v.003l-.003.004-.003.01a.47.47 0 0 0-.012.034l-.005.02c-.002.008-.005.017-.006.027l-.005.028-.002.019a.491.491 0 0 0-.002.037v.02c.005 2.975 2.415 5.393 5.377 5.393 2.962 0 5.373-2.419 5.378-5.394v-.007zm-5.378-12.774a.49.49 0 0 1 0 .982.49.49 0 0 1 0-.982zm-11.12 2.96a.972.972 0 0 1 .853-.504.98.98 0 0 1 .94.714h.001a.98.98 0 0 1-.674 1.214.98.98 0 1 1-1.12-1.424zm-9.413 2.935a.49.49 0 0 1 0 .982.49.49 0 0 1 0-.982zm4.16 12.28h-.25a.49.49 0 0 0 0 .983h.463c-.244 2.207-2.112 3.93-4.373 3.93s-4.13-1.723-4.373-3.93h6.328a.49.49 0 0 0 0-.983h-6.118l4.163-10.308c.001.06.012.12.036.178l4.124 10.13zm8.062 8.351v1.473a.49.49 0 0 0 .489.492h2.933c.27 0 .49.22.49.491v.492h-11.734v-.492c0-.27.22-.49.489-.49h5.866a.49.49 0 0 0 0-.983h-2.444v-.983c0-.27.22-.491.489-.491h2.933c.27 0 .489.22.489.491zm-2.444-1.474V73.884a1.935 1.935 0 0 0 .977 0v19.712h-.977zm10.755-7.86c-2.26 0-4.129-1.722-4.373-3.929h6.329a.49.49 0 0 0 0-.982h-6.119l4.163-10.309c.001.06.013.12.036.179l4.125 10.13h-.25a.49.49 0 0 0 0 .982h.462c-.244 2.207-2.112 3.93-4.373 3.93zM136.123 80.387l.386.324c.028.023 2.758 2.368 2.758 7.482v2.972a2.202 2.202 0 0 0-1.956 2.186c0 1.135.859 2.062 1.956 2.185v2.973h9.777v-2.973A2.202 2.202 0 0 0 151 93.351a2.202 2.202 0 0 0-1.956-2.186v-2.972c0-5.084 2.731-7.46 2.758-7.482l.386-.324-8.032-9.147-8.033 9.147zm9.5 2.402c0 .813-.659 1.474-1.467 1.474a1.472 1.472 0 0 1-1.467-1.474c0-.812.658-1.473 1.467-1.473.808 0 1.466.661 1.466 1.473zm2.444 14.737h-7.823v-1.965h7.823v1.965zm1.955-4.175c0 .677-.548 1.228-1.222 1.228h-9.289a1.227 1.227 0 0 1-1.222-1.228c0-.677.548-1.228 1.222-1.228h9.289c.674 0 1.222.551 1.222 1.228zm-5.378-20.07l6.17 7.027c-.822.878-2.747 3.41-2.747 7.885v2.947h-7.823v-2.947c0-4.475-1.925-7.007-2.747-7.885l6.17-7.026v7.1a2.457 2.457 0 0 0-1.956 2.407 2.453 2.453 0 0 0 2.445 2.457 2.458 2.458 0 1 0 .489-4.863v-7.101zM159.311 71h-2.933v-.982h-7.059c5.127 2.022 8.805 6.959 9.002 12.771h.99v2.948h-2.933v-2.948h.965c-.258-7.086-6.073-12.771-13.187-12.771-7.115 0-12.93 5.685-13.188 12.771h.965v2.948H129v-2.948h.99c.198-5.812 3.875-10.75 9.002-12.771h-7.059V71H129v-2.947h2.933v.982h24.445v-.982h2.933V71zm-1.955-1.965v.983h.977v-.983h-.977zm-26.4.983v-.983h-.978v.983h.978zm0 14.736v-.982h-.978v.982h.978zm26.4-.982v.982h.977v-.982h-.977zM245.872 93.516l-11.185-11.238.338-.342a.398.398 0 0 0 .104-.21l2.973-8.907c.104-.157.052-.367-.105-.524l-.73-.733a.503.503 0 0 0-.73 0l-13.976 14.095a.508.508 0 0 0 0 .733l.73.734c.105.105.21.157.313.157l5.163.734h.052c.105 0 .261-.053.365-.158l.364-.368 1.096 1.102 2.973 2.987 1.46 1.467 5.632 5.659a.472.472 0 0 0 .365.157c.156 0 .26-.053.365-.157l4.433-4.454a.477.477 0 0 0 .156-.367.477.477 0 0 0-.156-.367zm-17.261-6.602l-4.746-.681-.208-.21 13.245-13.361.157.105-2.816 8.488-5.632 5.66zm12.463 10.69l-1.955-1.966 1.486-1.493a.508.508 0 0 0 0-.734.503.503 0 0 0-.73 0l-1.487 1.494-.756-.76.73-.734a.508.508 0 0 0 0-.733.502.502 0 0 0-.73 0l-.73.733-.73-.733 1.46-1.467a.508.508 0 0 0 0-.734.503.503 0 0 0-.73 0l-1.46 1.467-.73-.733.73-.734a.508.508 0 0 0 0-.733.503.503 0 0 0-.73 0l-.73.733-.782-.786 1.46-1.467a.508.508 0 0 0 0-.733.503.503 0 0 0-.73 0l-1.46 1.467-.73-.734.73-.734a.508.508 0 0 0 0-.733.503.503 0 0 0-.73 0l-.73.733-.73-.733 3.702-3.72 10.795 10.846-3.703 3.72zm-5.11-27.195a.477.477 0 0 1-.157.367L221.78 84.87a.472.472 0 0 1-.365.157.472.472 0 0 1-.365-.157l-.73-.734c-.104-.105-.156-.21-.156-.314l-.73-5.188c0-.157.052-.314.156-.419l.365-.367-4.798-4.82a.477.477 0 0 1-.156-.367c0-.157.052-.262.156-.367l4.433-4.454a.472.472 0 0 1 .365-.157c.157 0 .26.053.365.157l4.798 4.82.365-.366c.052-.052.104-.105.208-.105l8.866-2.986c.208-.053.417 0 .521.105l.73.733c.104.105.157.21.157.367zm-16.74 5.24l1.46 1.467 3.703-3.72-4.433-4.454-3.702 3.72.73.734 1.46-1.468a.502.502 0 0 1 .73 0 .508.508 0 0 1 0 .734l-1.46 1.467.782.786.73-.734a.502.502 0 0 1 .73 0 .508.508 0 0 1 0 .734l-.73.734zm2.242 8.121l13.246-13.309-.156-.157-8.396 2.83-5.632 5.658.678 4.716.26.262zM111.528 26.49l.404-.81-2.928-16.668c.292-.458.463-1 .463-1.582A2.95 2.95 0 0 0 108 4.88V.553h-2.933V4.88A2.95 2.95 0 0 0 103.6 7.43c0 .582.171 1.124.462 1.582l-1.49 8.48L86 .84V31.01h30.025l-4.497-4.518zm-.615-.96l-.469.942-.51-1.025-2.822-15.128a2.91 2.91 0 0 0 1.052-.44l2.749 15.651zm-2.33-2l-3.451-3.467 1.401-7.512 2.05 10.98zm-2.539-21.995h.978v2.992a2.919 2.919 0 0 0-.489-.045c-.166 0-.33.018-.489.045V1.535zm.49 3.93c1.078 0 1.955.881 1.955 1.965a1.962 1.962 0 0 1-1.956 1.965 1.962 1.962 0 0 1-1.955-1.965c0-1.084.877-1.965 1.955-1.965zm-1.631 4.414c.313.21.67.363 1.052.44l-2.823 15.129-.51 1.024-.468-.941 2.749-15.652zm4.564 18.674v1.473h-1.956V27.57h-.978v2.456h-1.955v-1.473h-.978v1.473h-1.956V27.57h-.977v2.456H98.71v-1.473h-.978v1.473h-1.955V27.57H94.8v2.456h-1.956v-1.473h-.977v1.473H89.91V27.57h-.978v2.456h-1.955V27.57h1.466v-.982h-1.466v-1.965h2.444v-.983h-2.444v-1.965h1.466v-.982h-1.466v-1.965h2.444v-.982h-2.444V15.78h1.466v-.983h-1.466v-1.965h2.444v-.982h-2.444V9.886h1.466v-.982h-1.466V6.939h2.444v-.983h-2.444V3.212l15.388 15.462-.83 4.724L90.889 12.7v13.396h7.822v-.982h-6.844V15.071l9.462 9.508-.095.535H99.69v.982h1.653l1.28 2.573 1.446-2.906.845-4.53 3.988 4.007.085.456 1.402 2.857h-.921zm.977.116l.623-1.252 2.597 2.61h-3.22v-1.358zM286.896 22.11c4.057-7.133 2.838-16.115-2.973-21.896a.52.52 0 0 0-.735 0l-9.022 9.065-5.887-5.921a4.932 4.932 0 0 0-6.998.08 4.99 4.99 0 0 0 0 6.951l5.892 5.916-9.021 9.06a.526.526 0 0 0 0 .738 18.208 18.208 0 0 0 12.885 5.397 17.936 17.936 0 0 0 8.866-2.363l2.206 2.217a.52.52 0 0 0 .735 0l6.258-6.288a.526.526 0 0 0 0-.739l-2.206-2.216zM275.73 9.185l1.194 1.2a.52.52 0 0 0 .735-.057.526.526 0 0 0 0-.682l-1.194-1.2.83-.833 1.193 1.2a.52.52 0 0 0 .736-.057.526.526 0 0 0 0-.682l-1.194-1.2.829-.833 1.194 1.2a.52.52 0 0 0 .735-.057.526.526 0 0 0 0-.682l-1.194-1.2.83-.833 1.193 1.2a.52.52 0 0 0 .736-.057.526.526 0 0 0 0-.681l-1.195-1.2.83-.833 1.194 1.2a.52.52 0 0 0 .735-.058.526.526 0 0 0 0-.681l-1.194-1.2.829-.828c5.104 5.39 6.157 13.476 2.607 20.005l-3.128-3.149a12.773 12.773 0 0 0 .208-9.61.522.522 0 0 0-.38-.324.52.52 0 0 0-.48.141l-4.548 4.57-2.93-2.946.829-.833zm6.445 8.138l-3.582-3.6 3.958-3.977a11.716 11.716 0 0 1-.297 7.66V17.4l-.079-.078zm-22.914 8.415l.824-.833 1.195 1.2a.52.52 0 0 0 .735-.058.526.526 0 0 0 0-.681l-1.194-1.2.829-.833 1.194 1.2a.52.52 0 0 0 .735-.058.526.526 0 0 0 0-.681l-1.194-1.2.83-.833 1.193 1.2a.52.52 0 0 0 .736-.058.526.526 0 0 0 0-.681l-1.194-1.2.829-.833 1.194 1.2a.52.52 0 0 0 .735-.058.526.526 0 0 0 0-.681l-1.194-1.2.83-.833 1.193 1.2a.52.52 0 0 0 .736-.057.526.526 0 0 0 0-.682l-1.195-1.2.83-.833 1.194 1.2 1.752 1.76-4.542 4.57a.526.526 0 0 0 .182.859 12.733 12.733 0 0 0 9.57-.22l3.128 3.144a17.042 17.042 0 0 1-19.93-2.62zm12.354-4.989l2.415 2.458 1.22 1.226c-1.344.52-2.773.785-4.214.78a11.714 11.714 0 0 1-3.374-.492l3.953-3.972zm10.894 9.49l-2.112-2.122-3.859-3.878-.96-.964-5.736-5.764-1.564-1.572-6.258-6.287a3.938 3.938 0 0 1 .205-5.547 3.892 3.892 0 0 1 5.312-.002l3.286 3.295-1.716 1.724a.526.526 0 0 0-.057.74.52.52 0 0 0 .792 0l1.716-1.725.83.833-1.717 1.724a.526.526 0 0 0-.056.74.52.52 0 0 0 .792 0l1.715-1.725.673.676.151.152-1.715 1.724a.526.526 0 0 0-.057.739.52.52 0 0 0 .792 0l1.72-1.719.674.676.15.152-1.715 1.724a.526.526 0 0 0-.057.739.52.52 0 0 0 .792 0l1.721-1.719.83.833-1.716 1.724a.526.526 0 0 0-.057.739.52.52 0 0 0 .792 0l1.716-1.724.829.833-1.716 1.724a.526.526 0 0 0-.057.739.52.52 0 0 0 .792 0l1.716-1.724.391.393.433.435-1.716 1.724a.526.526 0 0 0-.056.739.52.52 0 0 0 .792 0l1.72-1.719.83.833-1.716 1.724a.526.526 0 0 0-.057.739.52.52 0 0 0 .792 0l1.716-1.724.83.833-1.716 1.724a.526.526 0 0 0-.057.739.52.52 0 0 0 .792 0l1.716-1.724.829.833-1.716 1.724a.526.526 0 0 0-.057.739.52.52 0 0 0 .792 0l1.716-1.724.83.833-1.717 1.724a.526.526 0 0 0-.056.739.52.52 0 0 0 .792 0l1.715-1.724.83.833-5.523 5.549zm-17.47-25.46a2.352 2.352 0 0 0-2.346 2.358 2.352 2.352 0 0 0 2.346 2.357 2.352 2.352 0 0 0 2.347-2.357 2.352 2.352 0 0 0-2.347-2.358zm0 3.667c-.72 0-1.303-.586-1.303-1.31 0-.723.583-1.31 1.303-1.31s1.304.587 1.304 1.31c0 .724-.584 1.31-1.304 1.31zM74.289 81.318v-.002-.01l-.002-.038-.003-.019-.004-.028-.007-.028-.005-.018a.494.494 0 0 0-.013-.037c0-.003-.001-.006-.003-.008v-.003a.094.094 0 0 0-.002-.004l-4.398-10.8a.491.491 0 0 0-.062-.11 1.475 1.475 0 0 0-.879-2.652c-.784 0-1.427.622-1.465 1.4l-7.113 2.03a1.955 1.955 0 0 0-2.222-.899c-.503.143-.92.475-1.174.933a1.96 1.96 0 0 0-.248 1.004l-7.127 2.033a1.463 1.463 0 0 0-2.65.868c0 .463.213.876.546 1.146l-4.42 10.942v.003l-.002.005-.004.01a.47.47 0 0 0-.011.034l-.005.02-.007.026-.004.029-.003.019A.49.49 0 0 0 43 87.2v.021c.006 2.975 2.416 5.393 5.378 5.393s5.373-2.42 5.377-5.395v-.008-.01c0-.012 0-.025-.002-.038l-.003-.019c0-.01-.002-.019-.004-.028l-.007-.029-.004-.018a.494.494 0 0 0-.013-.036l-.003-.009-.001-.002a.094.094 0 0 0-.002-.004l-4.397-10.8a.491.491 0 0 0-.062-.11c.338-.255.563-.654.585-1.105l7.114-2.029c.07.12.153.231.245.332a.5.5 0 0 0-.023.15v20.14c-.809 0-1.467.662-1.467 1.474v.983h-2.444c-.809 0-1.467.66-1.467 1.473v.983a.49.49 0 0 0 .489.491H65a.49.49 0 0 0 .489-.491v-.983c0-.812-.658-1.473-1.467-1.473h-2.444v-.983c0-.812-.658-1.474-1.467-1.474v-20.14a.493.493 0 0 0-.023-.148 1.982 1.982 0 0 0 .512-1.373l7.127-2.032c.076.104.165.198.264.279l-4.419 10.942v.003l-.003.004-.003.01a.47.47 0 0 0-.012.034l-.005.02c-.002.008-.005.017-.006.027l-.005.028-.002.019a.49.49 0 0 0-.002.037v.02c.005 2.975 2.415 5.393 5.377 5.393 2.962 0 5.373-2.419 5.378-5.394v-.007zM68.91 68.544a.49.49 0 0 1 0 .982.49.49 0 0 1 0-.982zm-11.12 2.96a.972.972 0 0 1 .853-.504.98.98 0 0 1 .94.714h.001a.98.98 0 0 1-.674 1.214.98.98 0 1 1-1.12-1.424zm-9.413 2.935a.49.49 0 0 1 0 .982.49.49 0 0 1 0-.982zm4.16 12.28h-.25a.49.49 0 0 0 0 .983h.463c-.244 2.207-2.112 3.93-4.373 3.93s-4.13-1.723-4.373-3.93h6.328a.49.49 0 0 0 0-.983h-6.118l4.163-10.308c.001.06.012.12.036.178l4.124 10.13zM60.6 95.07v1.473a.49.49 0 0 0 .489.492h2.933c.27 0 .49.22.49.491v.492H52.777v-.492c0-.27.22-.49.489-.49h5.866a.49.49 0 0 0 0-.983H56.69v-.983c0-.27.22-.491.489-.491h2.933c.27 0 .489.22.489.491zm-2.444-1.474V73.884a1.935 1.935 0 0 0 .977 0v19.712h-.977zm10.755-7.86c-2.26 0-4.129-1.722-4.373-3.929h6.329a.49.49 0 0 0 0-.982h-6.119l4.163-10.309c.001.06.013.12.036.179l4.125 10.13h-.25a.49.49 0 0 0 0 .982h.462c-.244 2.207-2.112 3.93-4.373 3.93zM28.896 22.11c4.057-7.133 2.838-16.115-2.973-21.896a.52.52 0 0 0-.735 0l-9.022 9.065-5.887-5.921a4.932 4.932 0 0 0-6.998.08 4.99 4.99 0 0 0 0 6.951l5.892 5.916-9.021 9.06a.526.526 0 0 0 0 .738A18.208 18.208 0 0 0 13.037 31.5a17.936 17.936 0 0 0 8.866-2.363l2.206 2.217a.52.52 0 0 0 .735 0l6.258-6.288a.526.526 0 0 0 0-.739l-2.206-2.216zM17.73 9.185l1.194 1.2a.52.52 0 0 0 .735-.057.526.526 0 0 0 0-.682l-1.194-1.2.83-.833 1.193 1.2a.52.52 0 0 0 .736-.057.526.526 0 0 0 0-.682l-1.194-1.2.829-.833 1.194 1.2a.52.52 0 0 0 .735-.057.526.526 0 0 0 0-.682l-1.194-1.2.83-.833 1.193 1.2a.52.52 0 0 0 .736-.057.526.526 0 0 0 0-.681l-1.195-1.2.83-.833 1.194 1.2a.52.52 0 0 0 .735-.058.526.526 0 0 0 0-.681l-1.194-1.2.829-.828c5.104 5.39 6.157 13.476 2.607 20.005l-3.128-3.149a12.773 12.773 0 0 0 .208-9.61.522.522 0 0 0-.38-.324.52.52 0 0 0-.48.141l-4.548 4.57-2.93-2.946.829-.833zm6.445 8.138l-3.582-3.6 3.958-3.977a11.716 11.716 0 0 1-.297 7.66V17.4l-.079-.078zM1.262 25.737l.824-.833 1.195 1.2a.52.52 0 0 0 .735-.058.526.526 0 0 0 0-.681l-1.194-1.2.829-.833 1.194 1.2a.52.52 0 0 0 .735-.058.526.526 0 0 0 0-.681l-1.194-1.2.83-.833 1.193 1.2a.52.52 0 0 0 .736-.058.526.526 0 0 0 0-.681l-1.194-1.2.829-.833 1.194 1.2a.52.52 0 0 0 .735-.058.526.526 0 0 0 0-.681l-1.194-1.2.83-.833 1.193 1.2a.52.52 0 0 0 .736-.057.526.526 0 0 0 0-.682l-1.195-1.2.83-.833 1.194 1.2 1.752 1.76-4.542 4.57a.526.526 0 0 0 .182.859 12.733 12.733 0 0 0 9.57-.22l3.128 3.144a17.042 17.042 0 0 1-19.93-2.62zm12.354-4.989l2.415 2.458 1.22 1.226c-1.344.52-2.773.785-4.214.78a11.715 11.715 0 0 1-3.374-.492l3.953-3.972zm10.894 9.49l-2.112-2.122-3.859-3.878-.96-.964-5.736-5.764-1.564-1.572L4.02 9.651a3.938 3.938 0 0 1 .205-5.547 3.892 3.892 0 0 1 5.312-.002l3.286 3.295-1.716 1.724a.526.526 0 0 0-.057.74.52.52 0 0 0 .792 0l1.716-1.725.83.833-1.717 1.724a.526.526 0 0 0-.056.74.52.52 0 0 0 .792 0l1.715-1.725.673.676.151.152-1.715 1.724a.526.526 0 0 0-.057.739.52.52 0 0 0 .792 0l1.72-1.719.674.676.15.152-1.715 1.724a.526.526 0 0 0-.057.739.52.52 0 0 0 .792 0l1.721-1.719.83.833-1.716 1.724a.526.526 0 0 0-.057.739.52.52 0 0 0 .792 0l1.716-1.724.829.833-1.716 1.724a.526.526 0 0 0-.057.739.52.52 0 0 0 .792 0l1.716-1.724.391.393.433.435-1.716 1.724a.526.526 0 0 0-.056.739.52.52 0 0 0 .792 0l1.72-1.719.83.833-1.716 1.724a.526.526 0 0 0-.057.739.52.52 0 0 0 .792 0l1.716-1.724.83.833-1.716 1.724a.526.526 0 0 0-.057.739.52.52 0 0 0 .792 0l1.716-1.724.829.833-1.716 1.724a.526.526 0 0 0-.057.739.52.52 0 0 0 .792 0l1.716-1.724.83.833-1.717 1.724a.526.526 0 0 0-.056.739.52.52 0 0 0 .792 0l1.715-1.724.83.833-5.523 5.549zM7.04 4.778a2.352 2.352 0 0 0-2.346 2.358A2.352 2.352 0 0 0 7.04 9.493a2.352 2.352 0 0 0 2.347-2.357A2.352 2.352 0 0 0 7.04 4.778zm0 3.667c-.72 0-1.303-.586-1.303-1.31 0-.723.583-1.31 1.303-1.31s1.304.587 1.304 1.31c0 .724-.584 1.31-1.304 1.31zM195.443 1.097h-21.559a1.898 1.898 0 0 0-1.264.5 1.919 1.919 0 0 0-.123 2.702l3.65 3.82V27.82a2.614 2.614 0 0 0 2.608 2.62H194.4a2.614 2.614 0 0 0 2.607-2.62V2.67c0-.869-.7-1.573-1.564-1.573zm.521 20.5v6.223c0 .868-.7 1.572-1.564 1.572h-15.645a1.568 1.568 0 0 1-1.564-1.572v-6.125a.587.587 0 0 1 0-.137v-2.58a.532.532 0 0 1 0-.131v-1.965a.532.532 0 0 1 0-.13v-1.966a.532.532 0 0 1 0-.13V12.69a.532.532 0 0 1 0-.13V7.908a.525.525 0 0 0-.146-.367l-3.807-3.956a.867.867 0 0 1 .647-1.44h21.558c.288 0 .521.234.521.523v18.929zm-18.773-8.907a.522.522 0 0 0 .517.459h4.172a.523.523 0 0 0 .521-.524.523.523 0 0 0-.521-.524h-4.172c-.266 0-.485.2-.517.458v.131zm0 6.157v.131a.522.522 0 0 0 .517.458h4.172a.523.523 0 0 0 .521-.524.523.523 0 0 0-.521-.523h-4.172c-.266 0-.485.2-.517.458zm0-4.06a.522.522 0 0 0 .517.458h2.086a.523.523 0 0 0 .521-.524.523.523 0 0 0-.521-.524h-2.086c-.266 0-.485.2-.517.458v.131zm0 1.964v.131a.522.522 0 0 0 .517.459h2.086a.523.523 0 0 0 .521-.524.523.523 0 0 0-.521-.524h-2.086c-.266 0-.485.2-.517.458zm24.186-12.51a1.898 1.898 0 0 1 1.888 1.902v14.341c0 .869-.7 1.572-1.565 1.572a1.568 1.568 0 0 1-1.564-1.572v-13.1h-2.612a.523.523 0 0 1-.521-.523c0-.29.233-.524.521-.524h2.612c.576 0 1.043.47 1.043 1.048v13.1a.523.523 0 1 0 1.043 0V6.142a.852.852 0 0 0-.845-.854h-3.82a.523.523 0 0 1-.521-.524c0-.29.233-.524.521-.524h3.82zm-5.413 17.357a.549.549 0 0 0-.165-.39c-1.362-1.172-3.04-1.796-4.76-1.772-1.72-.023-3.396.6-4.757 1.772-1.196 1.023-2.667 1.566-4.174 1.54-1.506.024-2.974-.519-4.169-1.54a.437.437 0 0 0-.64.078.552.552 0 0 0-.108.272v.137a.542.542 0 0 0 .16.33c1.362 1.169 3.038 1.791 4.757 1.766 1.72.026 3.398-.596 4.761-1.766 1.195-1.022 2.664-1.564 4.17-1.54 1.506-.026 2.977.517 4.173 1.54a.437.437 0 0 0 .64-.079.558.558 0 0 0 .112-.331v-.017zM590.289 81.318v-.002-.01l-.002-.038-.003-.019-.004-.028-.007-.028-.005-.018a.495.495 0 0 0-.013-.037c0-.003-.001-.006-.003-.008v-.003a.093.093 0 0 0-.002-.004l-4.398-10.8a.491.491 0 0 0-.062-.11 1.475 1.475 0 0 0-.879-2.652c-.784 0-1.427.622-1.465 1.4l-7.113 2.03a1.955 1.955 0 0 0-2.222-.899c-.503.143-.92.475-1.174.933a1.96 1.96 0 0 0-.248 1.004l-7.127 2.033a1.463 1.463 0 0 0-2.65.868c0 .463.213.876.546 1.146l-4.42 10.942v.003l-.002.005-.004.01a.47.47 0 0 0-.011.034l-.005.02-.007.026-.004.029-.003.019a.49.49 0 0 0-.002.036v.021c.006 2.975 2.416 5.393 5.378 5.393s5.373-2.42 5.377-5.395v-.008-.01c0-.012 0-.025-.002-.038l-.003-.019c0-.01-.002-.019-.004-.028l-.007-.029-.004-.018a.494.494 0 0 0-.013-.036l-.003-.009-.001-.002a.094.094 0 0 0-.002-.004l-4.397-10.8a.491.491 0 0 0-.062-.11c.338-.255.563-.654.585-1.105l7.114-2.029c.07.12.153.231.245.332a.5.5 0 0 0-.023.15v20.14c-.809 0-1.467.662-1.467 1.474v.983h-2.444c-.809 0-1.467.66-1.467 1.473v.983a.49.49 0 0 0 .489.491H581a.49.49 0 0 0 .489-.491v-.983c0-.812-.658-1.473-1.467-1.473h-2.444v-.983c0-.812-.658-1.474-1.467-1.474v-20.14a.493.493 0 0 0-.023-.148 1.982 1.982 0 0 0 .512-1.373l7.127-2.032c.076.104.165.198.264.279l-4.419 10.942v.003l-.003.004-.003.01a.47.47 0 0 0-.012.034l-.005.02c-.002.008-.005.017-.006.027l-.005.028-.002.019a.491.491 0 0 0-.002.037v.02c.005 2.975 2.415 5.393 5.377 5.393 2.962 0 5.373-2.419 5.378-5.394v-.007zm-5.378-12.774a.49.49 0 0 1 0 .982.49.49 0 0 1 0-.982zm-11.12 2.96a.972.972 0 0 1 .853-.504.98.98 0 0 1 .94.714h.001a.98.98 0 0 1-.674 1.214.98.98 0 1 1-1.12-1.424zm-9.413 2.935a.49.49 0 0 1 0 .982.49.49 0 0 1 0-.982zm4.16 12.28h-.25a.49.49 0 0 0 0 .983h.463c-.244 2.207-2.112 3.93-4.373 3.93s-4.13-1.723-4.373-3.93h6.328a.49.49 0 0 0 0-.983h-6.118l4.163-10.308c.001.06.012.12.036.178l4.124 10.13zm8.062 8.351v1.473a.49.49 0 0 0 .489.492h2.933c.27 0 .49.22.49.491v.492h-11.734v-.492c0-.27.22-.49.489-.49h5.866a.49.49 0 0 0 0-.983h-2.444v-.983c0-.27.22-.491.489-.491h2.933c.27 0 .489.22.489.491zm-2.444-1.474V73.884a1.935 1.935 0 0 0 .977 0v19.712h-.977zm10.755-7.86c-2.26 0-4.129-1.722-4.373-3.929h6.329a.49.49 0 0 0 0-.982h-6.119l4.163-10.309c.001.06.013.12.036.179l4.125 10.13h-.25a.49.49 0 0 0 0 .982h.462c-.244 2.207-2.112 3.93-4.373 3.93zM395.123 80.387l.386.324c.028.023 2.758 2.368 2.758 7.482v2.972a2.202 2.202 0 0 0-1.956 2.186c0 1.135.859 2.062 1.956 2.185v2.973h9.777v-2.973A2.202 2.202 0 0 0 410 93.351a2.202 2.202 0 0 0-1.956-2.186v-2.972c0-5.084 2.731-7.46 2.758-7.482l.386-.324-8.032-9.147-8.033 9.147zm9.5 2.402c0 .813-.659 1.474-1.467 1.474a1.472 1.472 0 0 1-1.467-1.474c0-.812.658-1.473 1.467-1.473.808 0 1.466.661 1.466 1.473zm2.444 14.737h-7.823v-1.965h7.823v1.965zm1.955-4.175c0 .677-.548 1.228-1.222 1.228h-9.289a1.227 1.227 0 0 1-1.222-1.228c0-.677.548-1.228 1.222-1.228h9.289c.674 0 1.222.551 1.222 1.228zm-5.378-20.07l6.17 7.027c-.822.878-2.747 3.41-2.747 7.885v2.947h-7.823v-2.947c0-4.475-1.925-7.007-2.747-7.885l6.17-7.026v7.1a2.457 2.457 0 0 0-1.956 2.407 2.453 2.453 0 0 0 2.445 2.457 2.458 2.458 0 1 0 .489-4.863v-7.101zM418.311 71h-2.933v-.982h-7.059c5.127 2.022 8.805 6.959 9.002 12.771h.99v2.948h-2.933v-2.948h.965c-.258-7.086-6.073-12.771-13.187-12.771-7.115 0-12.93 5.685-13.188 12.771h.965v2.948H388v-2.948h.99c.198-5.812 3.875-10.75 9.002-12.771h-7.059V71H388v-2.947h2.933v.982h24.445v-.982h2.933V71zm-1.955-1.965v.983h.977v-.983h-.977zm-26.4.983v-.983h-.978v.983h.978zm0 14.736v-.982h-.978v.982h.978zm26.4-.982v.982h.977v-.982h-.977zM503.872 93.516l-11.185-11.238.338-.342a.398.398 0 0 0 .104-.21l2.973-8.907c.104-.157.052-.367-.105-.524l-.73-.733a.503.503 0 0 0-.73 0l-13.976 14.095a.508.508 0 0 0 0 .733l.73.734c.105.105.21.157.313.157l5.163.734h.052c.105 0 .261-.053.365-.158l.364-.368 1.096 1.102 2.973 2.987 1.46 1.467 5.632 5.659a.472.472 0 0 0 .365.157c.156 0 .26-.053.365-.157l4.433-4.454a.477.477 0 0 0 .156-.367.477.477 0 0 0-.156-.367zm-17.261-6.602l-4.746-.681-.208-.21 13.245-13.361.157.105-2.816 8.488-5.632 5.66zm12.463 10.69l-1.955-1.966 1.486-1.493a.508.508 0 0 0 0-.734.503.503 0 0 0-.73 0l-1.487 1.494-.756-.76.73-.734a.508.508 0 0 0 0-.733.502.502 0 0 0-.73 0l-.73.733-.73-.733 1.46-1.467a.508.508 0 0 0 0-.734.503.503 0 0 0-.73 0l-1.46 1.467-.73-.733.73-.734a.508.508 0 0 0 0-.733.503.503 0 0 0-.73 0l-.73.733-.782-.786 1.46-1.467a.508.508 0 0 0 0-.733.503.503 0 0 0-.73 0l-1.46 1.467-.73-.734.73-.734a.508.508 0 0 0 0-.733.503.503 0 0 0-.73 0l-.73.733-.73-.733 3.702-3.72 10.795 10.846-3.703 3.72zm-5.11-27.195a.477.477 0 0 1-.157.367L479.78 84.87a.472.472 0 0 1-.365.157.472.472 0 0 1-.365-.157l-.73-.734c-.104-.105-.156-.21-.156-.314l-.73-5.188c0-.157.052-.314.156-.419l.365-.367-4.798-4.82a.477.477 0 0 1-.156-.367c0-.157.052-.262.156-.367l4.433-4.454a.472.472 0 0 1 .365-.157c.157 0 .26.053.365.157l4.798 4.82.365-.366c.052-.052.104-.105.208-.105l8.866-2.986c.208-.053.417 0 .521.105l.73.733c.104.105.157.21.157.367zm-16.74 5.24l1.46 1.467 3.703-3.72-4.433-4.454-3.702 3.72.73.734 1.46-1.468a.502.502 0 0 1 .73 0 .508.508 0 0 1 0 .734l-1.46 1.467.782.786.73-.734a.502.502 0 0 1 .73 0 .508.508 0 0 1 0 .734l-.73.734zm2.242 8.121l13.246-13.309-.156-.157-8.396 2.83-5.632 5.658.678 4.716.26.262zM369.528 26.49l.404-.81-2.928-16.668c.292-.458.463-1 .463-1.582A2.95 2.95 0 0 0 366 4.88V.553h-2.933V4.88A2.95 2.95 0 0 0 361.6 7.43c0 .582.171 1.124.462 1.582l-1.49 8.48L344 .84V31.01h30.025l-4.497-4.518zm-.615-.96l-.469.942-.51-1.025-2.822-15.128a2.91 2.91 0 0 0 1.052-.44l2.749 15.651zm-2.33-2l-3.451-3.467 1.401-7.512 2.05 10.98zm-2.539-21.995h.978v2.992a2.919 2.919 0 0 0-.489-.045c-.166 0-.33.018-.489.045V1.535zm.49 3.93c1.078 0 1.955.881 1.955 1.965a1.962 1.962 0 0 1-1.956 1.965 1.962 1.962 0 0 1-1.955-1.965c0-1.084.877-1.965 1.955-1.965zm-1.631 4.414c.313.21.67.363 1.052.44l-2.823 15.129-.51 1.024-.468-.941 2.749-15.652zm4.564 18.674v1.473h-1.956V27.57h-.978v2.456h-1.955v-1.473h-.978v1.473h-1.956V27.57h-.977v2.456h-1.956v-1.473h-.978v1.473h-1.955V27.57h-.978v2.456h-1.956v-1.473h-.977v1.473h-1.956V27.57h-.978v2.456h-1.955V27.57h1.466v-.982h-1.466v-1.965h2.444v-.983h-2.444v-1.965h1.466v-.982h-1.466v-1.965h2.444v-.982h-2.444V15.78h1.466v-.983h-1.466v-1.965h2.444v-.982h-2.444V9.886h1.466v-.982h-1.466V6.939h2.444v-.983h-2.444V3.212l15.388 15.462-.83 4.724L348.889 12.7v13.396h7.822v-.982h-6.844V15.071l9.462 9.508-.095.535h-1.545v.982h1.653l1.28 2.573 1.446-2.906.845-4.53 3.988 4.007.085.456 1.402 2.857h-.921zm.977.116l.623-1.252 2.597 2.61h-3.22v-1.358zM544.896 22.11c4.057-7.133 2.838-16.115-2.973-21.896a.52.52 0 0 0-.735 0l-9.022 9.065-5.887-5.921a4.932 4.932 0 0 0-6.998.08 4.99 4.99 0 0 0 0 6.951l5.892 5.916-9.021 9.06a.526.526 0 0 0 0 .738 18.208 18.208 0 0 0 12.885 5.397 17.936 17.936 0 0 0 8.866-2.363l2.206 2.217a.52.52 0 0 0 .735 0l6.258-6.288a.526.526 0 0 0 0-.739l-2.206-2.216zM533.73 9.185l1.194 1.2a.52.52 0 0 0 .735-.057.526.526 0 0 0 0-.682l-1.194-1.2.83-.833 1.193 1.2a.52.52 0 0 0 .736-.057.526.526 0 0 0 0-.682l-1.194-1.2.829-.833 1.194 1.2a.52.52 0 0 0 .735-.057.526.526 0 0 0 0-.682l-1.194-1.2.83-.833 1.193 1.2a.52.52 0 0 0 .736-.057.526.526 0 0 0 0-.681l-1.195-1.2.83-.833 1.194 1.2a.52.52 0 0 0 .735-.058.526.526 0 0 0 0-.681l-1.194-1.2.829-.828c5.104 5.39 6.157 13.476 2.607 20.005l-3.128-3.149a12.773 12.773 0 0 0 .208-9.61.522.522 0 0 0-.38-.324.52.52 0 0 0-.48.141l-4.548 4.57-2.93-2.946.829-.833zm6.445 8.138l-3.582-3.6 3.958-3.977a11.716 11.716 0 0 1-.297 7.66V17.4l-.079-.078zm-22.914 8.415l.824-.833 1.195 1.2a.52.52 0 0 0 .735-.058.526.526 0 0 0 0-.681l-1.194-1.2.829-.833 1.194 1.2a.52.52 0 0 0 .735-.058.526.526 0 0 0 0-.681l-1.194-1.2.83-.833 1.193 1.2a.52.52 0 0 0 .736-.058.526.526 0 0 0 0-.681l-1.194-1.2.829-.833 1.194 1.2a.52.52 0 0 0 .735-.058.526.526 0 0 0 0-.681l-1.194-1.2.83-.833 1.193 1.2a.52.52 0 0 0 .736-.057.526.526 0 0 0 0-.682l-1.195-1.2.83-.833 1.194 1.2 1.752 1.76-4.542 4.57a.526.526 0 0 0 .182.859 12.733 12.733 0 0 0 9.57-.22l3.128 3.144a17.042 17.042 0 0 1-19.93-2.62zm12.354-4.989l2.415 2.458 1.22 1.226c-1.344.52-2.773.785-4.214.78a11.714 11.714 0 0 1-3.374-.492l3.953-3.972zm10.894 9.49l-2.112-2.122-3.859-3.878-.96-.964-5.736-5.764-1.564-1.572-6.258-6.287a3.938 3.938 0 0 1 .205-5.547 3.892 3.892 0 0 1 5.312-.002l3.286 3.295-1.716 1.724a.526.526 0 0 0-.057.74.52.52 0 0 0 .792 0l1.716-1.725.83.833-1.717 1.724a.526.526 0 0 0-.056.74.52.52 0 0 0 .792 0l1.715-1.725.673.676.151.152-1.715 1.724a.526.526 0 0 0-.057.739.52.52 0 0 0 .792 0l1.72-1.719.674.676.15.152-1.715 1.724a.526.526 0 0 0-.057.739.52.52 0 0 0 .792 0l1.721-1.719.83.833-1.716 1.724a.526.526 0 0 0-.057.739.52.52 0 0 0 .792 0l1.716-1.724.829.833-1.716 1.724a.526.526 0 0 0-.057.739.52.52 0 0 0 .792 0l1.716-1.724.391.393.433.435-1.716 1.724a.526.526 0 0 0-.056.739.52.52 0 0 0 .792 0l1.72-1.719.83.833-1.716 1.724a.526.526 0 0 0-.057.739.52.52 0 0 0 .792 0l1.716-1.724.83.833-1.716 1.724a.526.526 0 0 0-.057.739.52.52 0 0 0 .792 0l1.716-1.724.829.833-1.716 1.724a.526.526 0 0 0-.057.739.52.52 0 0 0 .792 0l1.716-1.724.83.833-1.717 1.724a.526.526 0 0 0-.056.739.52.52 0 0 0 .792 0l1.715-1.724.83.833-5.523 5.549zm-17.47-25.46a2.352 2.352 0 0 0-2.346 2.358 2.352 2.352 0 0 0 2.346 2.357 2.352 2.352 0 0 0 2.347-2.357 2.352 2.352 0 0 0-2.347-2.358zm0 3.667c-.72 0-1.303-.586-1.303-1.31 0-.723.583-1.31 1.303-1.31s1.304.587 1.304 1.31c0 .724-.584 1.31-1.304 1.31zM452.443 1.097h-21.559a1.898 1.898 0 0 0-1.264.5 1.919 1.919 0 0 0-.123 2.702l3.65 3.82V27.82a2.614 2.614 0 0 0 2.608 2.62H451.4a2.614 2.614 0 0 0 2.607-2.62V2.67c0-.869-.7-1.573-1.564-1.573zm.521 20.5v6.223c0 .868-.7 1.572-1.564 1.572h-15.645a1.568 1.568 0 0 1-1.564-1.572v-6.125a.587.587 0 0 1 0-.137v-2.58a.532.532 0 0 1 0-.131v-1.965a.532.532 0 0 1 0-.13v-1.966a.532.532 0 0 1 0-.13V12.69a.532.532 0 0 1 0-.13V7.908a.525.525 0 0 0-.146-.367l-3.807-3.956a.867.867 0 0 1 .647-1.44h21.558c.288 0 .521.234.521.523v18.929zm-18.773-8.907a.522.522 0 0 0 .517.459h4.172a.523.523 0 0 0 .521-.524.523.523 0 0 0-.521-.524h-4.172c-.266 0-.485.2-.517.458v.131zm0 6.157v.131a.522.522 0 0 0 .517.458h4.172a.523.523 0 0 0 .521-.524.523.523 0 0 0-.521-.523h-4.172c-.266 0-.485.2-.517.458zm0-4.06a.522.522 0 0 0 .517.458h2.086a.523.523 0 0 0 .521-.524.523.523 0 0 0-.521-.524h-2.086c-.266 0-.485.2-.517.458v.131zm0 1.964v.131a.522.522 0 0 0 .517.459h2.086a.523.523 0 0 0 .521-.524.523.523 0 0 0-.521-.524h-2.086c-.266 0-.485.2-.517.458zm24.186-12.51a1.898 1.898 0 0 1 1.888 1.902v14.341c0 .869-.7 1.572-1.565 1.572a1.568 1.568 0 0 1-1.564-1.572v-13.1h-2.612a.523.523 0 0 1-.521-.523c0-.29.233-.524.521-.524h2.612c.576 0 1.043.47 1.043 1.048v13.1a.523.523 0 1 0 1.043 0V6.142a.852.852 0 0 0-.845-.854h-3.82a.523.523 0 0 1-.521-.524c0-.29.233-.524.521-.524h3.82zm-5.413 17.357a.549.549 0 0 0-.165-.39c-1.362-1.172-3.04-1.796-4.76-1.772-1.72-.023-3.396.6-4.757 1.772-1.196 1.023-2.667 1.566-4.174 1.54-1.506.024-2.974-.519-4.169-1.54a.437.437 0 0 0-.64.078.552.552 0 0 0-.108.272v.137a.542.542 0 0 0 .16.33c1.362 1.169 3.038 1.791 4.757 1.766 1.72.026 3.398-.596 4.761-1.766 1.195-1.022 2.664-1.564 4.17-1.54 1.506-.026 2.977.517 4.173 1.54a.437.437 0 0 0 .64-.079.558.558 0 0 0 .112-.331v-.017zM848.289 83.318v-.002-.01l-.002-.038-.003-.019-.004-.028-.007-.028-.005-.018a.495.495 0 0 0-.013-.037c0-.003-.001-.006-.003-.008v-.003a.093.093 0 0 0-.002-.004l-4.398-10.8a.491.491 0 0 0-.062-.11 1.475 1.475 0 0 0-.879-2.652c-.784 0-1.427.622-1.465 1.4l-7.113 2.03a1.955 1.955 0 0 0-2.222-.899c-.503.143-.92.475-1.174.933a1.96 1.96 0 0 0-.248 1.004l-7.127 2.033a1.463 1.463 0 0 0-2.65.868c0 .463.213.876.546 1.146l-4.42 10.942v.003l-.002.005-.004.01a.47.47 0 0 0-.011.034l-.005.02-.007.026-.004.029-.003.019a.49.49 0 0 0-.002.036v.021c.006 2.975 2.416 5.393 5.378 5.393s5.373-2.42 5.377-5.395v-.008-.01c0-.012 0-.025-.002-.038l-.003-.019c0-.01-.002-.019-.004-.028l-.007-.029-.004-.018a.494.494 0 0 0-.013-.036l-.003-.009-.001-.002a.094.094 0 0 0-.002-.004l-4.397-10.8a.491.491 0 0 0-.062-.11c.338-.255.563-.654.585-1.105l7.114-2.029c.07.12.153.231.245.332a.5.5 0 0 0-.023.15v20.14c-.809 0-1.467.662-1.467 1.474v.983h-2.444c-.809 0-1.467.66-1.467 1.473v.983a.49.49 0 0 0 .489.491H839a.49.49 0 0 0 .489-.491v-.983c0-.812-.658-1.473-1.467-1.473h-2.444v-.983c0-.812-.658-1.474-1.467-1.474v-20.14a.493.493 0 0 0-.023-.148 1.982 1.982 0 0 0 .512-1.373l7.127-2.032c.076.104.165.198.264.279l-4.419 10.942v.003l-.003.004-.003.01a.47.47 0 0 0-.012.034l-.005.02c-.002.008-.005.017-.006.027l-.005.028-.002.019a.491.491 0 0 0-.002.037v.02c.005 2.975 2.415 5.393 5.377 5.393 2.962 0 5.373-2.419 5.378-5.394v-.007zm-5.378-12.774a.49.49 0 0 1 0 .982.49.49 0 0 1 0-.982zm-11.12 2.96a.972.972 0 0 1 .853-.504.98.98 0 0 1 .94.714h.001a.98.98 0 0 1-.674 1.214.98.98 0 1 1-1.12-1.424zm-9.413 2.935a.49.49 0 0 1 0 .982.49.49 0 0 1 0-.982zm4.16 12.28h-.25a.49.49 0 0 0 0 .983h.463c-.244 2.207-2.112 3.93-4.373 3.93s-4.13-1.723-4.373-3.93h6.328a.49.49 0 0 0 0-.983h-6.118l4.163-10.308c.001.06.012.12.036.178l4.124 10.13zm8.062 8.351v1.473a.49.49 0 0 0 .489.492h2.933c.27 0 .49.22.49.491v.492h-11.734v-.492c0-.27.22-.49.489-.49h5.866a.49.49 0 0 0 0-.983h-2.444v-.983c0-.27.22-.491.489-.491h2.933c.27 0 .489.22.489.491zm-2.444-1.474V75.884a1.935 1.935 0 0 0 .977 0v19.712h-.977zm10.755-7.86c-2.26 0-4.129-1.722-4.373-3.929h6.329a.49.49 0 0 0 0-.982h-6.119l4.163-10.309c.001.06.013.12.036.179l4.125 10.13h-.25a.49.49 0 0 0 0 .982h.462c-.244 2.207-2.112 3.93-4.373 3.93zM653.123 82.387l.386.324c.028.023 2.758 2.368 2.758 7.482v2.972a2.202 2.202 0 0 0-1.956 2.186c0 1.135.859 2.062 1.956 2.185v2.973h9.777v-2.973A2.202 2.202 0 0 0 668 95.351a2.202 2.202 0 0 0-1.956-2.186v-2.972c0-5.084 2.731-7.46 2.758-7.482l.386-.324-8.032-9.147-8.033 9.147zm9.5 2.402c0 .813-.659 1.474-1.467 1.474a1.472 1.472 0 0 1-1.467-1.474c0-.812.658-1.473 1.467-1.473.808 0 1.466.661 1.466 1.473zm2.444 14.737h-7.823v-1.965h7.823v1.965zm1.955-4.175c0 .677-.548 1.228-1.222 1.228h-9.289a1.227 1.227 0 0 1-1.222-1.228c0-.677.548-1.228 1.222-1.228h9.289c.674 0 1.222.551 1.222 1.228zm-5.378-20.07l6.17 7.027c-.822.878-2.747 3.41-2.747 7.885v2.947h-7.823v-2.947c0-4.475-1.925-7.007-2.747-7.885l6.17-7.026v7.1a2.457 2.457 0 0 0-1.956 2.407 2.453 2.453 0 0 0 2.445 2.457 2.458 2.458 0 1 0 .489-4.863v-7.101zM676.311 73h-2.933v-.982h-7.059c5.127 2.022 8.805 6.959 9.002 12.771h.99v2.948h-2.933v-2.948h.965c-.258-7.086-6.073-12.771-13.187-12.771-7.115 0-12.93 5.685-13.188 12.771h.965v2.948H646v-2.948h.99c.198-5.812 3.875-10.75 9.002-12.771h-7.059V73H646v-2.947h2.933v.982h24.445v-.982h2.933V73zm-1.955-1.965v.983h.977v-.983h-.977zm-26.4.983v-.983h-.978v.983h.978zm0 14.736v-.982h-.978v.982h.978zm26.4-.982v.982h.977v-.982h-.977zM761.872 95.516l-11.185-11.238.338-.342a.398.398 0 0 0 .104-.21l2.973-8.907c.104-.157.052-.367-.105-.524l-.73-.733a.503.503 0 0 0-.73 0l-13.976 14.095a.508.508 0 0 0 0 .733l.73.734c.105.105.21.157.313.157l5.163.734h.052c.105 0 .261-.053.365-.158l.364-.368 1.096 1.102 2.973 2.987 1.46 1.467 5.632 5.659a.472.472 0 0 0 .365.157c.156 0 .26-.053.365-.157l4.433-4.454a.477.477 0 0 0 .156-.367.477.477 0 0 0-.156-.367zm-17.261-6.602l-4.746-.681-.208-.21 13.245-13.361.157.105-2.816 8.488-5.632 5.66zm12.463 10.69l-1.955-1.966 1.486-1.493a.508.508 0 0 0 0-.734.503.503 0 0 0-.73 0l-1.487 1.494-.756-.76.73-.734a.508.508 0 0 0 0-.733.502.502 0 0 0-.73 0l-.73.733-.73-.733 1.46-1.467a.508.508 0 0 0 0-.734.503.503 0 0 0-.73 0l-1.46 1.467-.73-.733.73-.734a.508.508 0 0 0 0-.733.503.503 0 0 0-.73 0l-.73.733-.782-.786 1.46-1.467a.508.508 0 0 0 0-.733.503.503 0 0 0-.73 0l-1.46 1.467-.73-.734.73-.734a.508.508 0 0 0 0-.733.503.503 0 0 0-.73 0l-.73.733-.73-.733 3.702-3.72 10.795 10.846-3.703 3.72zm-5.11-27.195a.477.477 0 0 1-.157.367L737.78 86.87a.472.472 0 0 1-.365.157.472.472 0 0 1-.365-.157l-.73-.734c-.104-.105-.156-.21-.156-.314l-.73-5.188c0-.157.052-.314.156-.419l.365-.367-4.798-4.82a.477.477 0 0 1-.156-.367c0-.157.052-.262.156-.367l4.433-4.454a.472.472 0 0 1 .365-.157c.157 0 .26.053.365.157l4.798 4.82.365-.366c.052-.052.104-.105.208-.105l8.866-2.986c.208-.053.417 0 .521.105l.73.733c.104.105.157.21.157.367zm-16.74 5.24l1.46 1.467 3.703-3.72-4.433-4.454-3.702 3.72.73.734 1.46-1.468a.502.502 0 0 1 .73 0 .508.508 0 0 1 0 .734l-1.46 1.467.782.786.73-.734a.502.502 0 0 1 .73 0 .508.508 0 0 1 0 .734l-.73.734zm2.242 8.121l13.246-13.309-.156-.157-8.396 2.83-5.632 5.658.678 4.716.26.262zM627.528 28.49l.404-.81-2.928-16.668c.292-.458.463-1 .463-1.582A2.95 2.95 0 0 0 624 6.88V2.553h-2.933V6.88A2.95 2.95 0 0 0 619.6 9.43c0 .582.171 1.124.462 1.582l-1.49 8.48L602 2.84V33.01h30.025l-4.497-4.518zm-.615-.96l-.469.942-.51-1.025-2.822-15.128a2.91 2.91 0 0 0 1.052-.44l2.749 15.651zm-2.33-2l-3.451-3.467 1.401-7.512 2.05 10.98zm-2.539-21.995h.978v2.992a2.919 2.919 0 0 0-.489-.045c-.166 0-.33.018-.489.045V3.535zm.49 3.93c1.078 0 1.955.881 1.955 1.965a1.962 1.962 0 0 1-1.956 1.965 1.962 1.962 0 0 1-1.955-1.965c0-1.084.877-1.965 1.955-1.965zm-1.631 4.414c.313.21.67.363 1.052.44l-2.823 15.129-.51 1.024-.468-.941 2.749-15.652zm4.564 18.674v1.473h-1.956V29.57h-.978v2.456h-1.955v-1.473h-.978v1.473h-1.956V29.57h-.977v2.456h-1.956v-1.473h-.978v1.473h-1.955V29.57h-.978v2.456h-1.956v-1.473h-.977v1.473h-1.956V29.57h-.978v2.456h-1.955V29.57h1.466v-.982h-1.466v-1.965h2.444v-.983h-2.444v-1.965h1.466v-.982h-1.466v-1.965h2.444v-.982h-2.444V17.78h1.466v-.983h-1.466v-1.965h2.444v-.982h-2.444v-1.965h1.466v-.982h-1.466V8.939h2.444v-.983h-2.444V5.212l15.388 15.462-.83 4.724L606.889 14.7v13.396h7.822v-.982h-6.844V17.071l9.462 9.508-.095.535h-1.545v.982h1.653l1.28 2.573 1.446-2.906.845-4.53 3.988 4.007.085.456 1.402 2.857h-.921zm.977.116l.623-1.252 2.597 2.61h-3.22v-1.358zM802.896 24.11c4.057-7.133 2.838-16.115-2.973-21.896a.52.52 0 0 0-.735 0l-9.022 9.065-5.887-5.921a4.932 4.932 0 0 0-6.998.08 4.99 4.99 0 0 0 0 6.951l5.892 5.916-9.021 9.06a.526.526 0 0 0 0 .738 18.208 18.208 0 0 0 12.885 5.397 17.936 17.936 0 0 0 8.866-2.363l2.206 2.217a.52.52 0 0 0 .735 0l6.258-6.288a.526.526 0 0 0 0-.739l-2.206-2.216zM791.73 11.185l1.194 1.2a.52.52 0 0 0 .735-.057.526.526 0 0 0 0-.682l-1.194-1.2.83-.833 1.193 1.2a.52.52 0 0 0 .736-.057.526.526 0 0 0 0-.682l-1.194-1.2.829-.833 1.194 1.2a.52.52 0 0 0 .735-.057.526.526 0 0 0 0-.682l-1.194-1.2.83-.833 1.193 1.2a.52.52 0 0 0 .736-.057.526.526 0 0 0 0-.681l-1.195-1.2.83-.833 1.194 1.2a.52.52 0 0 0 .735-.058.526.526 0 0 0 0-.681l-1.194-1.2.829-.828c5.104 5.39 6.157 13.476 2.607 20.005l-3.128-3.149a12.773 12.773 0 0 0 .208-9.61.522.522 0 0 0-.38-.324.52.52 0 0 0-.48.141l-4.548 4.57-2.93-2.946.829-.833zm6.445 8.138l-3.582-3.6 3.958-3.977a11.716 11.716 0 0 1-.297 7.66V19.4l-.079-.078zm-22.914 8.415l.824-.833 1.195 1.2a.52.52 0 0 0 .735-.058.526.526 0 0 0 0-.681l-1.194-1.2.829-.833 1.194 1.2a.52.52 0 0 0 .735-.058.526.526 0 0 0 0-.681l-1.194-1.2.83-.833 1.193 1.2a.52.52 0 0 0 .736-.058.526.526 0 0 0 0-.681l-1.194-1.2.829-.833 1.194 1.2a.52.52 0 0 0 .735-.058.526.526 0 0 0 0-.681l-1.194-1.2.83-.833 1.193 1.2a.52.52 0 0 0 .736-.057.526.526 0 0 0 0-.682l-1.195-1.2.83-.833 1.194 1.2 1.752 1.76-4.542 4.57a.526.526 0 0 0 .182.859 12.733 12.733 0 0 0 9.57-.22l3.128 3.144a17.042 17.042 0 0 1-19.93-2.62zm12.354-4.989l2.415 2.458 1.22 1.226c-1.344.52-2.773.785-4.214.78a11.714 11.714 0 0 1-3.374-.492l3.953-3.972zm10.894 9.49l-2.112-2.122-3.859-3.878-.96-.964-5.736-5.764-1.564-1.572-6.258-6.287a3.938 3.938 0 0 1 .205-5.547 3.892 3.892 0 0 1 5.312-.002l3.286 3.295-1.716 1.724a.526.526 0 0 0-.057.74.52.52 0 0 0 .792 0l1.716-1.725.83.833-1.717 1.724a.526.526 0 0 0-.056.74.52.52 0 0 0 .792 0l1.715-1.725.673.676.151.152-1.715 1.724a.526.526 0 0 0-.057.739.52.52 0 0 0 .792 0l1.72-1.719.674.676.15.152-1.715 1.724a.526.526 0 0 0-.057.739.52.52 0 0 0 .792 0l1.721-1.719.83.833-1.716 1.724a.526.526 0 0 0-.057.739.52.52 0 0 0 .792 0l1.716-1.724.829.833-1.716 1.724a.526.526 0 0 0-.057.739.52.52 0 0 0 .792 0l1.716-1.724.391.393.433.435-1.716 1.724a.526.526 0 0 0-.056.739.52.52 0 0 0 .792 0l1.72-1.719.83.833-1.716 1.724a.526.526 0 0 0-.057.739.52.52 0 0 0 .792 0l1.716-1.724.83.833-1.716 1.724a.526.526 0 0 0-.057.739.52.52 0 0 0 .792 0l1.716-1.724.829.833-1.716 1.724a.526.526 0 0 0-.057.739.52.52 0 0 0 .792 0l1.716-1.724.83.833-1.717 1.724a.526.526 0 0 0-.056.739.52.52 0 0 0 .792 0l1.715-1.724.83.833-5.523 5.549zm-17.47-25.46a2.352 2.352 0 0 0-2.346 2.358 2.352 2.352 0 0 0 2.346 2.357 2.352 2.352 0 0 0 2.347-2.357 2.352 2.352 0 0 0-2.347-2.358zm0 3.667c-.72 0-1.303-.586-1.303-1.31 0-.723.583-1.31 1.303-1.31s1.304.587 1.304 1.31c0 .724-.584 1.31-1.304 1.31zM710.443 3.097h-21.559a1.898 1.898 0 0 0-1.264.5 1.919 1.919 0 0 0-.123 2.702l3.65 3.82V29.82a2.614 2.614 0 0 0 2.608 2.62H709.4a2.614 2.614 0 0 0 2.607-2.62V4.67c0-.869-.7-1.573-1.564-1.573zm.521 20.5v6.223c0 .868-.7 1.572-1.564 1.572h-15.645a1.568 1.568 0 0 1-1.564-1.572v-6.125a.587.587 0 0 1 0-.137v-2.58a.532.532 0 0 1 0-.131v-1.965a.532.532 0 0 1 0-.13v-1.966a.532.532 0 0 1 0-.13V14.69a.532.532 0 0 1 0-.13V9.908a.525.525 0 0 0-.146-.367l-3.807-3.956a.867.867 0 0 1 .647-1.44h21.558c.288 0 .521.234.521.523v18.929zm-18.773-8.907a.522.522 0 0 0 .517.459h4.172a.523.523 0 0 0 .521-.524.523.523 0 0 0-.521-.524h-4.172c-.266 0-.485.2-.517.458v.131zm0 6.157v.131a.522.522 0 0 0 .517.458h4.172a.523.523 0 0 0 .521-.524.523.523 0 0 0-.521-.523h-4.172c-.266 0-.485.2-.517.458zm0-4.06a.522.522 0 0 0 .517.458h2.086a.523.523 0 0 0 .521-.524.523.523 0 0 0-.521-.524h-2.086c-.266 0-.485.2-.517.458v.131zm0 1.964v.131a.522.522 0 0 0 .517.459h2.086a.523.523 0 0 0 .521-.524.523.523 0 0 0-.521-.524h-2.086c-.266 0-.485.2-.517.458zm24.186-12.51a1.898 1.898 0 0 1 1.888 1.902v14.341c0 .869-.7 1.572-1.565 1.572a1.568 1.568 0 0 1-1.564-1.572v-13.1h-2.612a.523.523 0 0 1-.521-.523c0-.29.233-.524.521-.524h2.612c.576 0 1.043.47 1.043 1.048v13.1a.523.523 0 1 0 1.043 0V8.142a.852.852 0 0 0-.845-.854h-3.82a.523.523 0 0 1-.521-.524c0-.29.233-.524.521-.524h3.82zm-5.413 17.357a.549.549 0 0 0-.165-.39c-1.362-1.172-3.04-1.796-4.76-1.772-1.72-.023-3.396.6-4.757 1.772-1.196 1.023-2.667 1.566-4.174 1.54-1.506.024-2.974-.519-4.169-1.54a.437.437 0 0 0-.64.078.552.552 0 0 0-.108.272v.137a.542.542 0 0 0 .16.33c1.362 1.169 3.038 1.791 4.757 1.766 1.72.026 3.398-.596 4.761-1.766 1.195-1.022 2.664-1.564 4.17-1.54 1.506-.026 2.977.517 4.173 1.54a.437.437 0 0 0 .64-.079.558.558 0 0 0 .112-.331v-.017zM1106.289 83.318v-.002-.01l-.002-.038-.003-.019-.004-.028-.007-.028-.005-.018a.498.498 0 0 0-.013-.037c0-.003-.001-.006-.003-.008v-.003a.082.082 0 0 0-.002-.004l-4.398-10.8a.492.492 0 0 0-.062-.11 1.475 1.475 0 0 0-.879-2.652c-.784 0-1.427.622-1.465 1.4l-7.113 2.03a1.955 1.955 0 0 0-2.222-.899c-.503.143-.92.475-1.174.933a1.96 1.96 0 0 0-.248 1.004l-7.127 2.033a1.463 1.463 0 0 0-2.65.868c0 .463.213.876.546 1.146l-4.42 10.942v.003l-.002.005-.004.01a.473.473 0 0 0-.011.034l-.005.02-.007.026-.004.029-.003.019a.489.489 0 0 0-.002.036v.021c.006 2.975 2.416 5.393 5.378 5.393s5.373-2.42 5.377-5.395v-.008-.01c0-.012 0-.025-.002-.038l-.003-.019c0-.01-.002-.019-.004-.028l-.007-.029-.004-.018a.493.493 0 0 0-.013-.036l-.003-.009-.001-.002a.096.096 0 0 0-.002-.004l-4.397-10.8a.491.491 0 0 0-.062-.11c.338-.255.563-.654.585-1.105l7.114-2.029c.07.12.153.231.245.332a.5.5 0 0 0-.023.15v20.14c-.809 0-1.467.662-1.467 1.474v.983h-2.444c-.809 0-1.467.66-1.467 1.473v.983a.49.49 0 0 0 .489.491H1097a.49.49 0 0 0 .489-.491v-.983c0-.812-.658-1.473-1.467-1.473h-2.444v-.983c0-.812-.658-1.474-1.467-1.474v-20.14a.493.493 0 0 0-.023-.148 1.983 1.983 0 0 0 .512-1.373l7.127-2.032c.076.104.165.198.264.279l-4.419 10.942v.003l-.003.004-.003.01a.473.473 0 0 0-.012.034l-.005.02c-.002.008-.005.017-.006.027l-.005.028-.002.019a.494.494 0 0 0-.002.037v.02c.005 2.975 2.415 5.393 5.377 5.393 2.962 0 5.373-2.419 5.378-5.394v-.007zm-5.378-12.774a.49.49 0 0 1 0 .982.49.49 0 0 1 0-.982zm-11.12 2.96a.972.972 0 0 1 .853-.504.98.98 0 0 1 .94.714h.001a.98.98 0 0 1-.674 1.214.98.98 0 1 1-1.12-1.424zm-9.413 2.935a.49.49 0 0 1 0 .982.49.49 0 0 1 0-.982zm4.16 12.28h-.25a.49.49 0 0 0 0 .983h.463c-.244 2.207-2.112 3.93-4.373 3.93s-4.13-1.723-4.373-3.93h6.328a.49.49 0 0 0 0-.983h-6.118l4.163-10.308c.001.06.012.12.036.178l4.124 10.13zm8.062 8.351v1.473a.49.49 0 0 0 .489.492h2.933c.27 0 .49.22.49.491v.492h-11.734v-.492c0-.27.22-.49.489-.49h5.866a.49.49 0 0 0 0-.983h-2.444v-.983c0-.27.22-.491.489-.491h2.933c.27 0 .489.22.489.491zm-2.444-1.474V75.884a1.935 1.935 0 0 0 .977 0v19.712h-.977zm10.755-7.86c-2.26 0-4.129-1.722-4.373-3.929h6.329a.49.49 0 0 0 0-.982h-6.119l4.163-10.309c.001.06.013.12.036.179l4.125 10.13h-.25a.49.49 0 0 0 0 .982h.462c-.244 2.207-2.112 3.93-4.373 3.93zM911.123 82.387l.386.324c.028.023 2.758 2.368 2.758 7.482v2.972a2.202 2.202 0 0 0-1.956 2.186c0 1.135.859 2.062 1.956 2.185v2.973h9.777v-2.973A2.202 2.202 0 0 0 926 95.351a2.202 2.202 0 0 0-1.956-2.186v-2.972c0-5.084 2.731-7.46 2.758-7.482l.386-.324-8.032-9.147-8.033 9.147zm9.5 2.402c0 .813-.659 1.474-1.467 1.474a1.472 1.472 0 0 1-1.467-1.474c0-.812.658-1.473 1.467-1.473.808 0 1.466.661 1.466 1.473zm2.444 14.737h-7.823v-1.965h7.823v1.965zm1.955-4.175c0 .677-.548 1.228-1.222 1.228h-9.289a1.227 1.227 0 0 1-1.222-1.228c0-.677.548-1.228 1.222-1.228h9.289c.674 0 1.222.551 1.222 1.228zm-5.378-20.07l6.17 7.027c-.822.878-2.747 3.41-2.747 7.885v2.947h-7.823v-2.947c0-4.475-1.925-7.007-2.747-7.885l6.17-7.026v7.1a2.457 2.457 0 0 0-1.956 2.407 2.453 2.453 0 0 0 2.445 2.457 2.458 2.458 0 1 0 .489-4.863v-7.101zM934.311 73h-2.933v-.982h-7.059c5.127 2.022 8.805 6.959 9.002 12.771h.99v2.948h-2.933v-2.948h.965c-.258-7.086-6.073-12.771-13.187-12.771-7.115 0-12.93 5.685-13.188 12.771h.965v2.948H904v-2.948h.99c.198-5.812 3.875-10.75 9.002-12.771h-7.059V73H904v-2.947h2.933v.982h24.445v-.982h2.933V73zm-1.955-1.965v.983h.977v-.983h-.977zm-26.4.983v-.983h-.978v.983h.978zm0 14.736v-.982h-.978v.982h.978zm26.4-.982v.982h.977v-.982h-.977zM1019.872 95.516l-11.185-11.238.338-.342a.398.398 0 0 0 .104-.21l2.973-8.907c.104-.157.052-.367-.105-.524l-.73-.733a.503.503 0 0 0-.73 0l-13.976 14.095a.508.508 0 0 0 0 .733l.73.734c.105.105.21.157.313.157l5.163.734h.052c.105 0 .261-.053.365-.158l.364-.368 1.096 1.102 2.973 2.987 1.46 1.467 5.632 5.659a.472.472 0 0 0 .365.157c.156 0 .26-.053.365-.157l4.433-4.454a.477.477 0 0 0 .156-.367.477.477 0 0 0-.156-.367zm-17.261-6.602l-4.746-.681-.208-.21 13.245-13.361.157.105-2.816 8.488-5.632 5.66zm12.463 10.69l-1.955-1.966 1.486-1.493a.508.508 0 0 0 0-.734.502.502 0 0 0-.73 0l-1.487 1.494-.756-.76.73-.734a.508.508 0 0 0 0-.733.502.502 0 0 0-.73 0l-.73.733-.73-.733 1.46-1.467a.508.508 0 0 0 0-.734.503.503 0 0 0-.73 0l-1.46 1.467-.73-.733.73-.734a.508.508 0 0 0 0-.733.502.502 0 0 0-.73 0l-.73.733-.782-.786 1.46-1.467a.508.508 0 0 0 0-.733.502.502 0 0 0-.73 0l-1.46 1.467-.73-.734.73-.734a.508.508 0 0 0 0-.733.503.503 0 0 0-.73 0l-.73.733-.73-.733 3.702-3.72 10.795 10.846-3.703 3.72zm-5.11-27.195a.477.477 0 0 1-.157.367L995.78 86.87a.472.472 0 0 1-.365.157.472.472 0 0 1-.365-.157l-.73-.734c-.104-.105-.156-.21-.156-.314l-.73-5.188c0-.157.052-.314.156-.419l.365-.367-4.798-4.82a.477.477 0 0 1-.156-.367c0-.157.052-.262.156-.367l4.433-4.454a.472.472 0 0 1 .365-.157c.157 0 .26.053.365.157l4.798 4.82.365-.366c.052-.052.104-.105.208-.105l8.866-2.986c.208-.053.417 0 .521.105l.73.733c.104.105.157.21.157.367zm-16.74 5.24l1.46 1.467 3.703-3.72-4.433-4.454-3.702 3.72.73.734 1.46-1.468a.502.502 0 0 1 .73 0 .508.508 0 0 1 0 .734l-1.46 1.467.782.786.73-.734a.502.502 0 0 1 .73 0 .508.508 0 0 1 0 .734l-.73.734zm2.242 8.121l13.246-13.309-.156-.157-8.396 2.83-5.632 5.658.678 4.716.26.262zM885.528 28.49l.404-.81-2.928-16.668c.292-.458.463-1 .463-1.582A2.95 2.95 0 0 0 882 6.88V2.553h-2.933V6.88A2.95 2.95 0 0 0 877.6 9.43c0 .582.171 1.124.462 1.582l-1.49 8.48L860 2.84V33.01h30.025l-4.497-4.518zm-.615-.96l-.469.942-.51-1.025-2.822-15.128a2.91 2.91 0 0 0 1.052-.44l2.749 15.651zm-2.33-2l-3.451-3.467 1.401-7.512 2.05 10.98zm-2.539-21.995h.978v2.992a2.919 2.919 0 0 0-.489-.045c-.166 0-.33.018-.489.045V3.535zm.49 3.93c1.078 0 1.955.881 1.955 1.965a1.962 1.962 0 0 1-1.956 1.965 1.962 1.962 0 0 1-1.955-1.965c0-1.084.877-1.965 1.955-1.965zm-1.631 4.414c.313.21.67.363 1.052.44l-2.823 15.129-.51 1.024-.468-.941 2.749-15.652zm4.564 18.674v1.473h-1.956V29.57h-.978v2.456h-1.955v-1.473h-.978v1.473h-1.956V29.57h-.977v2.456h-1.956v-1.473h-.978v1.473h-1.955V29.57h-.978v2.456h-1.956v-1.473h-.977v1.473h-1.956V29.57h-.978v2.456h-1.955V29.57h1.466v-.982h-1.466v-1.965h2.444v-.983h-2.444v-1.965h1.466v-.982h-1.466v-1.965h2.444v-.982h-2.444V17.78h1.466v-.983h-1.466v-1.965h2.444v-.982h-2.444v-1.965h1.466v-.982h-1.466V8.939h2.444v-.983h-2.444V5.212l15.388 15.462-.83 4.724L864.889 14.7v13.396h7.822v-.982h-6.844V17.071l9.462 9.508-.095.535h-1.545v.982h1.653l1.28 2.573 1.446-2.906.845-4.53 3.988 4.007.085.456 1.402 2.857h-.921zm.977.116l.623-1.252 2.597 2.61h-3.22v-1.358zM1060.896 24.11c4.057-7.133 2.838-16.115-2.973-21.896a.52.52 0 0 0-.735 0l-9.022 9.065-5.887-5.921a4.932 4.932 0 0 0-6.998.08 4.99 4.99 0 0 0 0 6.951l5.892 5.916-9.021 9.06a.526.526 0 0 0 0 .738 18.208 18.208 0 0 0 12.885 5.397 17.936 17.936 0 0 0 8.866-2.363l2.206 2.217a.52.52 0 0 0 .735 0l6.258-6.288a.526.526 0 0 0 0-.739l-2.206-2.216zm-11.165-12.926l1.194 1.2a.52.52 0 0 0 .735-.057.526.526 0 0 0 0-.682l-1.194-1.2.83-.833 1.193 1.2a.52.52 0 0 0 .736-.057.526.526 0 0 0 0-.682l-1.194-1.2.829-.833 1.194 1.2a.52.52 0 0 0 .735-.057.526.526 0 0 0 0-.682l-1.194-1.2.83-.833 1.193 1.2a.52.52 0 0 0 .736-.057.526.526 0 0 0 0-.681l-1.195-1.2.83-.833 1.194 1.2a.52.52 0 0 0 .735-.058.526.526 0 0 0 0-.681l-1.194-1.2.83-.828c5.103 5.39 6.156 13.476 2.606 20.005l-3.128-3.149a12.773 12.773 0 0 0 .208-9.61.522.522 0 0 0-.38-.324.52.52 0 0 0-.48.141l-4.548 4.57-2.93-2.946.829-.833zm6.445 8.138l-3.582-3.6 3.958-3.977a11.716 11.716 0 0 1-.297 7.66V19.4l-.079-.078zm-22.914 8.415l.824-.833 1.195 1.2a.52.52 0 0 0 .735-.058.526.526 0 0 0 0-.681l-1.194-1.2.829-.833 1.194 1.2a.52.52 0 0 0 .735-.058.526.526 0 0 0 0-.681l-1.194-1.2.83-.833 1.193 1.2a.52.52 0 0 0 .736-.058.526.526 0 0 0 0-.681l-1.194-1.2.829-.833 1.194 1.2a.52.52 0 0 0 .735-.058.526.526 0 0 0 0-.681l-1.194-1.2.83-.833 1.193 1.2a.52.52 0 0 0 .736-.057.526.526 0 0 0 0-.682l-1.195-1.2.83-.833 1.194 1.2 1.752 1.76-4.542 4.57a.526.526 0 0 0 .182.859 12.733 12.733 0 0 0 9.57-.22l3.128 3.144a17.042 17.042 0 0 1-19.93-2.62zm12.354-4.989l2.415 2.458 1.22 1.226c-1.344.52-2.773.785-4.214.78a11.715 11.715 0 0 1-3.374-.492l3.953-3.972zm10.894 9.49l-2.112-2.122-3.859-3.878-.96-.964-5.736-5.764-1.564-1.572-6.258-6.287a3.938 3.938 0 0 1 .205-5.547 3.892 3.892 0 0 1 5.312-.002l3.286 3.295-1.716 1.724a.526.526 0 0 0-.057.74.52.52 0 0 0 .792 0l1.716-1.725.83.833-1.717 1.724a.526.526 0 0 0-.056.74.52.52 0 0 0 .792 0l1.715-1.725.673.676.151.152-1.715 1.724a.526.526 0 0 0-.057.739.52.52 0 0 0 .792 0l1.72-1.719.674.676.15.152-1.715 1.724a.526.526 0 0 0-.057.739.52.52 0 0 0 .792 0l1.721-1.719.83.833-1.716 1.724a.526.526 0 0 0-.057.739.52.52 0 0 0 .792 0l1.716-1.724.829.833-1.716 1.724a.526.526 0 0 0-.057.739.52.52 0 0 0 .792 0l1.716-1.724.391.393.433.435-1.716 1.724a.526.526 0 0 0-.056.739.52.52 0 0 0 .792 0l1.72-1.719.83.833-1.716 1.724a.526.526 0 0 0-.057.739.52.52 0 0 0 .792 0l1.716-1.724.83.833-1.716 1.724a.526.526 0 0 0-.057.739.52.52 0 0 0 .792 0l1.716-1.724.829.833-1.716 1.724a.526.526 0 0 0-.057.739.52.52 0 0 0 .792 0l1.716-1.724.83.833-1.717 1.724a.526.526 0 0 0-.056.739.52.52 0 0 0 .792 0l1.715-1.724.83.833-5.523 5.549zm-17.47-25.46a2.352 2.352 0 0 0-2.346 2.358 2.352 2.352 0 0 0 2.346 2.357 2.352 2.352 0 0 0 2.347-2.357 2.352 2.352 0 0 0-2.347-2.358zm0 3.667c-.72 0-1.303-.586-1.303-1.31 0-.723.583-1.31 1.303-1.31s1.304.587 1.304 1.31c0 .724-.584 1.31-1.304 1.31zM968.443 3.097h-21.559a1.898 1.898 0 0 0-1.264.5 1.919 1.919 0 0 0-.123 2.702l3.65 3.82V29.82a2.614 2.614 0 0 0 2.608 2.62H967.4a2.614 2.614 0 0 0 2.607-2.62V4.67c0-.869-.7-1.573-1.564-1.573zm.521 20.5v6.223c0 .868-.7 1.572-1.564 1.572h-15.645a1.568 1.568 0 0 1-1.564-1.572v-6.125a.587.587 0 0 1 0-.137v-2.58a.532.532 0 0 1 0-.131v-1.965a.532.532 0 0 1 0-.13v-1.966a.532.532 0 0 1 0-.13V14.69a.532.532 0 0 1 0-.13V9.908a.525.525 0 0 0-.146-.367l-3.807-3.956a.867.867 0 0 1 .647-1.44h21.558c.288 0 .521.234.521.523v18.929zm-18.773-8.907a.522.522 0 0 0 .517.459h4.172a.523.523 0 0 0 .521-.524.523.523 0 0 0-.521-.524h-4.172c-.266 0-.485.2-.517.458v.131zm0 6.157v.131a.522.522 0 0 0 .517.458h4.172a.523.523 0 0 0 .521-.524.523.523 0 0 0-.521-.523h-4.172c-.266 0-.485.2-.517.458zm0-4.06a.522.522 0 0 0 .517.458h2.086a.523.523 0 0 0 .521-.524.523.523 0 0 0-.521-.524h-2.086c-.266 0-.485.2-.517.458v.131zm0 1.964v.131a.522.522 0 0 0 .517.459h2.086a.523.523 0 0 0 .521-.524.523.523 0 0 0-.521-.524h-2.086c-.266 0-.485.2-.517.458zm24.186-12.51a1.898 1.898 0 0 1 1.888 1.902v14.341c0 .869-.7 1.572-1.565 1.572a1.568 1.568 0 0 1-1.564-1.572v-13.1h-2.612a.523.523 0 0 1-.521-.523c0-.29.233-.524.521-.524h2.612c.576 0 1.043.47 1.043 1.048v13.1a.523.523 0 1 0 1.043 0V8.142a.852.852 0 0 0-.845-.854h-3.82a.523.523 0 0 1-.521-.524c0-.29.233-.524.521-.524h3.82zm-5.413 17.357a.549.549 0 0 0-.165-.39c-1.362-1.172-3.04-1.796-4.76-1.772-1.72-.023-3.396.6-4.757 1.772-1.196 1.023-2.667 1.566-4.174 1.54-1.506.024-2.974-.519-4.169-1.54a.437.437 0 0 0-.64.078.552.552 0 0 0-.108.272v.137a.542.542 0 0 0 .16.33c1.362 1.169 3.038 1.791 4.757 1.766 1.72.026 3.398-.596 4.761-1.766 1.195-1.022 2.664-1.564 4.17-1.54 1.506-.026 2.977.517 4.173 1.54a.437.437 0 0 0 .64-.079.558.558 0 0 0 .112-.331v-.017zM1365.289 81.318v-.002-.01l-.002-.038-.003-.019-.004-.028-.007-.028-.005-.018a.498.498 0 0 0-.013-.037c0-.003-.001-.006-.003-.008v-.003a.082.082 0 0 0-.002-.004l-4.398-10.8a.492.492 0 0 0-.062-.11 1.475 1.475 0 0 0-.879-2.652c-.784 0-1.427.622-1.465 1.4l-7.113 2.03a1.955 1.955 0 0 0-2.222-.899c-.503.143-.92.475-1.174.933a1.96 1.96 0 0 0-.248 1.004l-7.127 2.033a1.463 1.463 0 0 0-2.65.868c0 .463.213.876.546 1.146l-4.42 10.942v.003l-.002.005-.004.01a.473.473 0 0 0-.011.034l-.005.02-.007.026-.004.029-.003.019a.489.489 0 0 0-.002.036v.021c.006 2.975 2.416 5.393 5.378 5.393s5.373-2.42 5.377-5.395v-.008-.01c0-.012 0-.025-.002-.038l-.003-.019c0-.01-.002-.019-.004-.028l-.007-.029-.004-.018a.493.493 0 0 0-.013-.036l-.003-.009-.001-.002a.096.096 0 0 0-.002-.004l-4.397-10.8a.491.491 0 0 0-.062-.11c.338-.255.563-.654.585-1.105l7.114-2.029c.07.12.153.231.245.332a.5.5 0 0 0-.023.15v20.14c-.809 0-1.467.662-1.467 1.474v.983h-2.444c-.809 0-1.467.66-1.467 1.473v.983a.49.49 0 0 0 .489.491H1356a.49.49 0 0 0 .489-.491v-.983c0-.812-.658-1.473-1.467-1.473h-2.444v-.983c0-.812-.658-1.474-1.467-1.474v-20.14a.493.493 0 0 0-.023-.148 1.983 1.983 0 0 0 .512-1.373l7.127-2.032c.076.104.165.198.264.279l-4.419 10.942v.003l-.003.004-.003.01a.473.473 0 0 0-.012.034l-.005.02c-.002.008-.005.017-.006.027l-.005.028-.002.019a.494.494 0 0 0-.002.037v.02c.005 2.975 2.415 5.393 5.377 5.393 2.962 0 5.373-2.419 5.378-5.394v-.007zm-5.378-12.774a.49.49 0 0 1 0 .982.49.49 0 0 1 0-.982zm-11.12 2.96a.972.972 0 0 1 .853-.504.98.98 0 0 1 .94.714h.001a.98.98 0 0 1-.674 1.214.98.98 0 1 1-1.12-1.424zm-9.413 2.935a.49.49 0 0 1 0 .982.49.49 0 0 1 0-.982zm4.16 12.28h-.25a.49.49 0 0 0 0 .983h.463c-.244 2.207-2.112 3.93-4.373 3.93s-4.13-1.723-4.373-3.93h6.328a.49.49 0 0 0 0-.983h-6.118l4.163-10.308c.001.06.012.12.036.178l4.124 10.13zm8.062 8.351v1.473a.49.49 0 0 0 .489.492h2.933c.27 0 .49.22.49.491v.492h-11.734v-.492c0-.27.22-.49.489-.49h5.866a.49.49 0 0 0 0-.983h-2.444v-.983c0-.27.22-.491.489-.491h2.933c.27 0 .489.22.489.491zm-2.444-1.474V73.884a1.935 1.935 0 0 0 .977 0v19.712h-.977zm10.755-7.86c-2.26 0-4.129-1.722-4.373-3.929h6.329a.49.49 0 0 0 0-.982h-6.119l4.163-10.309c.001.06.013.12.036.179l4.125 10.13h-.25a.49.49 0 0 0 0 .982h.462c-.244 2.207-2.112 3.93-4.373 3.93zM1169.123 80.387l.386.324c.028.023 2.758 2.368 2.758 7.482v2.972a2.202 2.202 0 0 0-1.956 2.186c0 1.135.859 2.062 1.956 2.185v2.973h9.777v-2.973a2.202 2.202 0 0 0 1.956-2.185 2.202 2.202 0 0 0-1.956-2.186v-2.972c0-5.084 2.731-7.46 2.758-7.482l.386-.324-8.032-9.147-8.033 9.147zm9.5 2.402c0 .813-.659 1.474-1.467 1.474a1.472 1.472 0 0 1-1.467-1.474c0-.812.658-1.473 1.467-1.473.808 0 1.466.661 1.466 1.473zm2.444 14.737h-7.823v-1.965h7.823v1.965zm1.955-4.175c0 .677-.548 1.228-1.222 1.228h-9.289a1.227 1.227 0 0 1-1.222-1.228c0-.677.548-1.228 1.222-1.228h9.289c.674 0 1.222.551 1.222 1.228zm-5.378-20.07l6.17 7.027c-.822.878-2.747 3.41-2.747 7.885v2.947h-7.823v-2.947c0-4.475-1.925-7.007-2.747-7.885l6.17-7.026v7.1a2.457 2.457 0 0 0-1.956 2.407 2.453 2.453 0 0 0 2.445 2.457 2.458 2.458 0 1 0 .489-4.863v-7.101zM1192.311 71h-2.933v-.982h-7.059c5.127 2.022 8.805 6.959 9.002 12.771h.99v2.948h-2.933v-2.948h.965c-.258-7.086-6.073-12.771-13.187-12.771-7.115 0-12.93 5.685-13.188 12.771h.965v2.948H1162v-2.948h.99c.198-5.812 3.875-10.75 9.002-12.771h-7.059V71H1162v-2.947h2.933v.982h24.445v-.982h2.933V71zm-1.955-1.965v.983h.977v-.983h-.977zm-26.4.983v-.983h-.978v.983h.978zm0 14.736v-.982h-.978v.982h.978zm26.4-.982v.982h.977v-.982h-.977zM1277.872 93.516l-11.185-11.238.338-.342a.398.398 0 0 0 .104-.21l2.973-8.907c.104-.157.052-.367-.105-.524l-.73-.733a.503.503 0 0 0-.73 0l-13.976 14.095a.508.508 0 0 0 0 .733l.73.734c.105.105.21.157.313.157l5.163.734h.052c.105 0 .261-.053.365-.158l.364-.368 1.096 1.102 2.973 2.987 1.46 1.467 5.632 5.659a.472.472 0 0 0 .365.157c.156 0 .26-.053.365-.157l4.433-4.454a.477.477 0 0 0 .156-.367.477.477 0 0 0-.156-.367zm-17.261-6.602l-4.746-.681-.208-.21 13.245-13.361.157.105-2.816 8.488-5.632 5.66zm12.463 10.69l-1.955-1.966 1.486-1.493a.508.508 0 0 0 0-.734.502.502 0 0 0-.73 0l-1.487 1.494-.756-.76.73-.734a.508.508 0 0 0 0-.733.502.502 0 0 0-.73 0l-.73.733-.73-.733 1.46-1.467a.508.508 0 0 0 0-.734.503.503 0 0 0-.73 0l-1.46 1.467-.73-.733.73-.734a.508.508 0 0 0 0-.733.502.502 0 0 0-.73 0l-.73.733-.782-.786 1.46-1.467a.508.508 0 0 0 0-.733.502.502 0 0 0-.73 0l-1.46 1.467-.73-.734.73-.734a.508.508 0 0 0 0-.733.503.503 0 0 0-.73 0l-.73.733-.73-.733 3.702-3.72 10.795 10.846-3.703 3.72zm-5.11-27.195a.477.477 0 0 1-.157.367L1253.78 84.87a.472.472 0 0 1-.365.157.472.472 0 0 1-.365-.157l-.73-.734c-.104-.105-.156-.21-.156-.314l-.73-5.188c0-.157.052-.314.156-.419l.365-.367-4.798-4.82a.477.477 0 0 1-.156-.367c0-.157.052-.262.156-.367l4.433-4.454a.472.472 0 0 1 .365-.157c.157 0 .26.053.365.157l4.798 4.82.365-.366c.052-.052.104-.105.208-.105l8.866-2.986c.208-.053.417 0 .521.105l.73.733c.104.105.157.21.157.367zm-16.74 5.24l1.46 1.467 3.703-3.72-4.433-4.454-3.702 3.72.73.734 1.46-1.468a.502.502 0 0 1 .73 0 .508.508 0 0 1 0 .734l-1.46 1.467.782.786.73-.734a.502.502 0 0 1 .73 0 .508.508 0 0 1 0 .734l-.73.734zm2.242 8.121l13.246-13.309-.156-.157-8.396 2.83-5.632 5.658.678 4.716.26.262zM1143.528 26.49l.404-.81-2.928-16.668c.292-.458.463-1 .463-1.582A2.95 2.95 0 0 0 1140 4.88V.553h-2.933V4.88a2.95 2.95 0 0 0-1.467 2.549c0 .582.171 1.124.462 1.582l-1.49 8.48L1118 .84V31.01h30.025l-4.497-4.518zm-.615-.96l-.469.942-.51-1.025-2.822-15.128a2.91 2.91 0 0 0 1.052-.44l2.749 15.651zm-2.33-2l-3.451-3.467 1.401-7.512 2.05 10.98zm-2.539-21.995h.978v2.992a2.919 2.919 0 0 0-.489-.045c-.166 0-.33.018-.489.045V1.535zm.49 3.93c1.078 0 1.955.881 1.955 1.965a1.962 1.962 0 0 1-1.956 1.965 1.962 1.962 0 0 1-1.955-1.965c0-1.084.877-1.965 1.955-1.965zm-1.631 4.414c.313.21.67.363 1.052.44l-2.823 15.129-.51 1.024-.468-.941 2.749-15.652zm4.564 18.674v1.473h-1.956V27.57h-.978v2.456h-1.955v-1.473h-.978v1.473h-1.956V27.57h-.977v2.456h-1.956v-1.473h-.978v1.473h-1.955V27.57h-.978v2.456h-1.956v-1.473h-.977v1.473h-1.956V27.57h-.978v2.456h-1.955V27.57h1.466v-.982h-1.466v-1.965h2.444v-.983h-2.444v-1.965h1.466v-.982h-1.466v-1.965h2.444v-.982h-2.444V15.78h1.466v-.983h-1.466v-1.965h2.444v-.982h-2.444V9.886h1.466v-.982h-1.466V6.939h2.444v-.983h-2.444V3.212l15.388 15.462-.83 4.724-10.647-10.698v13.396h7.822v-.982h-6.844V15.071l9.462 9.508-.095.535h-1.545v.982h1.653l1.28 2.573 1.446-2.906.845-4.53 3.988 4.007.085.456 1.402 2.857h-.921zm.977.116l.623-1.252 2.597 2.61h-3.22v-1.358zM1318.896 22.11c4.057-7.133 2.838-16.115-2.973-21.896a.52.52 0 0 0-.735 0l-9.022 9.065-5.887-5.921a4.932 4.932 0 0 0-6.998.08 4.99 4.99 0 0 0 0 6.951l5.892 5.916-9.021 9.06a.526.526 0 0 0 0 .738 18.208 18.208 0 0 0 12.885 5.397 17.936 17.936 0 0 0 8.866-2.363l2.206 2.217a.52.52 0 0 0 .735 0l6.258-6.288a.526.526 0 0 0 0-.739l-2.206-2.216zM1307.73 9.185l1.194 1.2a.52.52 0 0 0 .735-.057.526.526 0 0 0 0-.682l-1.194-1.2.83-.833 1.193 1.2a.52.52 0 0 0 .736-.057.526.526 0 0 0 0-.682l-1.194-1.2.829-.833 1.194 1.2a.52.52 0 0 0 .735-.057.526.526 0 0 0 0-.682l-1.194-1.2.83-.833 1.193 1.2a.52.52 0 0 0 .736-.057.526.526 0 0 0 0-.681l-1.195-1.2.83-.833 1.194 1.2a.52.52 0 0 0 .735-.058.526.526 0 0 0 0-.681l-1.194-1.2.83-.828c5.103 5.39 6.156 13.476 2.606 20.005l-3.128-3.149a12.773 12.773 0 0 0 .208-9.61.522.522 0 0 0-.38-.324.52.52 0 0 0-.48.141l-4.548 4.57-2.93-2.946.829-.833zm6.445 8.138l-3.582-3.6 3.958-3.977a11.716 11.716 0 0 1-.297 7.66V17.4l-.079-.078zm-22.914 8.415l.824-.833 1.195 1.2a.52.52 0 0 0 .735-.058.526.526 0 0 0 0-.681l-1.194-1.2.829-.833 1.194 1.2a.52.52 0 0 0 .735-.058.526.526 0 0 0 0-.681l-1.194-1.2.83-.833 1.193 1.2a.52.52 0 0 0 .736-.058.526.526 0 0 0 0-.681l-1.194-1.2.829-.833 1.194 1.2a.52.52 0 0 0 .735-.058.526.526 0 0 0 0-.681l-1.194-1.2.83-.833 1.193 1.2a.52.52 0 0 0 .736-.057.526.526 0 0 0 0-.682l-1.195-1.2.83-.833 1.194 1.2 1.752 1.76-4.542 4.57a.526.526 0 0 0 .182.859 12.733 12.733 0 0 0 9.57-.22l3.128 3.144a17.042 17.042 0 0 1-19.93-2.62zm12.354-4.989l2.415 2.458 1.22 1.226c-1.344.52-2.773.785-4.214.78a11.715 11.715 0 0 1-3.374-.492l3.953-3.972zm10.894 9.49l-2.112-2.122-3.859-3.878-.96-.964-5.736-5.764-1.564-1.572-6.258-6.287a3.938 3.938 0 0 1 .205-5.547 3.892 3.892 0 0 1 5.312-.002l3.286 3.295-1.716 1.724a.526.526 0 0 0-.057.74.52.52 0 0 0 .792 0l1.716-1.725.83.833-1.717 1.724a.526.526 0 0 0-.056.74.52.52 0 0 0 .792 0l1.715-1.725.673.676.151.152-1.715 1.724a.526.526 0 0 0-.057.739.52.52 0 0 0 .792 0l1.72-1.719.674.676.15.152-1.715 1.724a.526.526 0 0 0-.057.739.52.52 0 0 0 .792 0l1.721-1.719.83.833-1.716 1.724a.526.526 0 0 0-.057.739.52.52 0 0 0 .792 0l1.716-1.724.829.833-1.716 1.724a.526.526 0 0 0-.057.739.52.52 0 0 0 .792 0l1.716-1.724.391.393.433.435-1.716 1.724a.526.526 0 0 0-.056.739.52.52 0 0 0 .792 0l1.72-1.719.83.833-1.716 1.724a.526.526 0 0 0-.057.739.52.52 0 0 0 .792 0l1.716-1.724.83.833-1.716 1.724a.526.526 0 0 0-.057.739.52.52 0 0 0 .792 0l1.716-1.724.829.833-1.716 1.724a.526.526 0 0 0-.057.739.52.52 0 0 0 .792 0l1.716-1.724.83.833-1.717 1.724a.526.526 0 0 0-.056.739.52.52 0 0 0 .792 0l1.715-1.724.83.833-5.523 5.549zm-17.47-25.46a2.352 2.352 0 0 0-2.346 2.358 2.352 2.352 0 0 0 2.346 2.357 2.352 2.352 0 0 0 2.347-2.357 2.352 2.352 0 0 0-2.347-2.358zm0 3.667c-.72 0-1.303-.586-1.303-1.31 0-.723.583-1.31 1.303-1.31s1.304.587 1.304 1.31c0 .724-.584 1.31-1.304 1.31zM1226.443 1.097h-21.559a1.898 1.898 0 0 0-1.264.5 1.919 1.919 0 0 0-.123 2.702l3.65 3.82V27.82a2.614 2.614 0 0 0 2.608 2.62h15.645a2.614 2.614 0 0 0 2.607-2.62V2.67c0-.869-.7-1.573-1.564-1.573zm.521 20.5v6.223c0 .868-.7 1.572-1.564 1.572h-15.645a1.568 1.568 0 0 1-1.564-1.572v-6.125a.586.586 0 0 1 0-.137v-2.58a.53.53 0 0 1 0-.131v-1.965a.53.53 0 0 1 0-.13v-1.966a.53.53 0 0 1 0-.13V12.69a.53.53 0 0 1 0-.13V7.908a.525.525 0 0 0-.146-.367l-3.807-3.956a.867.867 0 0 1 .647-1.44h21.558c.288 0 .521.234.521.523v18.929zm-18.773-8.907a.522.522 0 0 0 .517.459h4.172a.523.523 0 0 0 .521-.524.523.523 0 0 0-.521-.524h-4.172c-.266 0-.485.2-.517.458v.131zm0 6.157v.131a.522.522 0 0 0 .517.458h4.172a.523.523 0 0 0 .521-.524.523.523 0 0 0-.521-.523h-4.172c-.266 0-.485.2-.517.458zm0-4.06a.522.522 0 0 0 .517.458h2.086a.523.523 0 0 0 .521-.524.523.523 0 0 0-.521-.524h-2.086c-.266 0-.485.2-.517.458v.131zm0 1.964v.131a.522.522 0 0 0 .517.459h2.086a.523.523 0 0 0 .521-.524.523.523 0 0 0-.521-.524h-2.086c-.266 0-.485.2-.517.458zm24.186-12.51a1.898 1.898 0 0 1 1.888 1.902v14.341c0 .869-.7 1.572-1.565 1.572a1.568 1.568 0 0 1-1.564-1.572v-13.1h-2.612a.523.523 0 0 1-.521-.523c0-.29.233-.524.521-.524h2.612c.576 0 1.043.47 1.043 1.048v13.1a.523.523 0 1 0 1.043 0V6.142a.852.852 0 0 0-.845-.854h-3.82a.523.523 0 0 1-.521-.524c0-.29.233-.524.521-.524h3.82zm-5.413 17.357a.549.549 0 0 0-.165-.39c-1.362-1.172-3.04-1.796-4.76-1.772-1.72-.023-3.396.6-4.757 1.772-1.196 1.023-2.667 1.566-4.174 1.54-1.506.024-2.974-.519-4.169-1.54a.437.437 0 0 0-.64.078.552.552 0 0 0-.108.272v.137a.542.542 0 0 0 .16.33c1.362 1.169 3.038 1.791 4.757 1.766 1.72.026 3.398-.596 4.761-1.766 1.195-1.022 2.664-1.564 4.17-1.54 1.506-.026 2.977.517 4.173 1.54a.437.437 0 0 0 .64-.079.558.558 0 0 0 .112-.331v-.017zM1427.123 80.387l.386.324c.028.023 2.758 2.368 2.758 7.482v2.972a2.202 2.202 0 0 0-1.956 2.186c0 1.135.859 2.062 1.956 2.185v2.973h9.777v-2.973a2.202 2.202 0 0 0 1.956-2.185 2.202 2.202 0 0 0-1.956-2.186v-2.972c0-5.084 2.731-7.46 2.758-7.482l.386-.324-8.032-9.147-8.033 9.147zm9.5 2.402c0 .813-.659 1.474-1.467 1.474a1.472 1.472 0 0 1-1.467-1.474c0-.812.658-1.473 1.467-1.473.808 0 1.466.661 1.466 1.473zm2.444 14.737h-7.823v-1.965h7.823v1.965zm1.955-4.175c0 .677-.548 1.228-1.222 1.228h-9.289a1.227 1.227 0 0 1-1.222-1.228c0-.677.548-1.228 1.222-1.228h9.289c.674 0 1.222.551 1.222 1.228zm-5.378-20.07l6.17 7.027c-.822.878-2.747 3.41-2.747 7.885v2.947h-7.823v-2.947c0-4.475-1.925-7.007-2.747-7.885l6.17-7.026v7.1a2.457 2.457 0 0 0-1.956 2.407 2.453 2.453 0 0 0 2.445 2.457 2.458 2.458 0 1 0 .489-4.863v-7.101zM1450.311 71h-2.933v-.982h-7.059c5.127 2.022 8.805 6.959 9.002 12.771h.99v2.948h-2.933v-2.948h.965c-.258-7.086-6.073-12.771-13.187-12.771-7.115 0-12.93 5.685-13.188 12.771h.965v2.948H1420v-2.948h.99c.198-5.812 3.875-10.75 9.002-12.771h-7.059V71H1420v-2.947h2.933v.982h24.445v-.982h2.933V71zm-1.955-1.965v.983h.977v-.983h-.977zm-26.4.983v-.983h-.978v.983h.978zm0 14.736v-.982h-.978v.982h.978zm26.4-.982v.982h.977v-.982h-.977zM1401.528 26.49l.404-.81-2.928-16.668c.292-.458.463-1 .463-1.582A2.95 2.95 0 0 0 1398 4.88V.553h-2.933V4.88a2.95 2.95 0 0 0-1.467 2.549c0 .582.171 1.124.462 1.582l-1.49 8.48L1376 .84V31.01h30.025l-4.497-4.518zm-.615-.96l-.469.942-.51-1.025-2.822-15.128a2.91 2.91 0 0 0 1.052-.44l2.749 15.651zm-2.33-2l-3.451-3.467 1.401-7.512 2.05 10.98zm-2.539-21.995h.978v2.992a2.919 2.919 0 0 0-.489-.045c-.166 0-.33.018-.489.045V1.535zm.49 3.93c1.078 0 1.955.881 1.955 1.965a1.962 1.962 0 0 1-1.956 1.965 1.962 1.962 0 0 1-1.955-1.965c0-1.084.877-1.965 1.955-1.965zm-1.631 4.414c.313.21.67.363 1.052.44l-2.823 15.129-.51 1.024-.468-.941 2.749-15.652zm4.564 18.674v1.473h-1.956V27.57h-.978v2.456h-1.955v-1.473h-.978v1.473h-1.956V27.57h-.977v2.456h-1.956v-1.473h-.978v1.473h-1.955V27.57h-.978v2.456h-1.956v-1.473h-.977v1.473h-1.956V27.57h-.978v2.456h-1.955V27.57h1.466v-.982h-1.466v-1.965h2.444v-.983h-2.444v-1.965h1.466v-.982h-1.466v-1.965h2.444v-.982h-2.444V15.78h1.466v-.983h-1.466v-1.965h2.444v-.982h-2.444V9.886h1.466v-.982h-1.466V6.939h2.444v-.983h-2.444V3.212l15.388 15.462-.83 4.724-10.647-10.698v13.396h7.822v-.982h-6.844V15.071l9.462 9.508-.095.535h-1.545v.982h1.653l1.28 2.573 1.446-2.906.845-4.53 3.988 4.007.085.456 1.402 2.857h-.921zm.977.116l.623-1.252 2.597 2.61h-3.22v-1.358z"/></g></svg>