<svg xmlns="http://www.w3.org/2000/svg" width="1200" height="744"><path d="M0 0v744h1200V0H0z" fill="#fdfdfd"/><path d="M578 21.424c-11.558 1.518-23.374.106-35 .615-17.033.746-34.031 3.19-51 5.246-27.825 3.373-54.808 10.04-82 16.186-49.322 11.148-99.117 29.186-144 52.872C176.346 143.656 89.93 222.596 69.379 326c-7.27 36.574-2.624 74.179 5.218 110.004 5.6 25.576 18.676 52.24 33.291 73.971 22.401 33.308 49.891 63.163 81.397 88.165C285.218 674.269 409.765 709.808 530 721.829c11.888 1.189 24.068-.312 36 .21 42.358 1.855 85.847 1.888 128-3.223 32.109-3.894 63.811-10.751 95.17-18.362 43.246-10.495 87.039-24.508 126.83-44.928 46.893-24.065 92.3-51.785 129.6-89.621 25.77-26.136 48.74-56.307 63.74-89.905 11.33-25.392 18.64-50.44 21.95-78 2.65-22.099 1.57-43.057-1.85-65-9.62-61.712-44.04-116.334-88.93-158.999-68.302-64.929-154.511-105-244.796-129.531-29.23-7.942-59.687-12.84-89.714-16.752-5.327-.694-10.681-2.197-16-2.625-3.983-.32-8.034.25-12-.302-4.727-.657-9.181-2.37-14-2.701-13.611-.938-27.37.467-41-.13-14.755-.646-30.243-2.473-45-.536z" fill="#4d4d4d"/><path d="M238 598c1.856 5.351 10.782 9.244 15.576 12.041 15.11 8.816 30.616 16.48 46.294 24.231 18.162 8.979 36.954 16.129 56.13 22.524 13.364 4.456 26.356 9.766 40.004 13.469 41.515 11.263 83.398 18.782 125.996 22.905 107.161 10.37 218.646.652 320-36.287 8.537-3.112 17.451-5.378 25.961-8.844C922.919 625.65 975.322 595.402 1019 554.91c7.58-7.031 13.66-14.854 20.41-22.486 14.73-16.622 28.62-33.483 38.83-53.424 11.87-23.162 21.06-47.217 25.32-73 2.5-15.079 2.44-29.726 2.44-45 0-11.726-2.46-22.593-4.88-34-6.34-29.861-18.43-57.063-35.55-82.325-57.29-84.521-151.832-136.148-247.57-165.42-27.5-8.409-55.552-15.808-84-20.791-3.645-.639-7.356-.284-11-.928-10.257-1.812-20.608-4.326-31-5.366-12.23-1.222-24.724-1.419-37-2.26-8.685-.594-17.31-2.225-26-2.82-25.293-1.733-51.844-.694-77 1.74-15.294 1.48-30.727 1.813-46 3.34-10.427 1.043-20.695 3.834-31 5.505-3.584.581-7.265-.062-10.83.584C383.299 72.92 301.129 100.6 233 147.377 159.746 197.673 96.092 271.44 92.04 364c-.657 14.987 1.089 29.375 3.865 44 2.691 14.177 5.142 28.556 10.597 42 10.571 26.05 25.583 50.676 43.405 72.385 18.562 22.61 39.758 44.375 64.093 60.844 7.315 4.951 14.843 13.755 24 14.771z" fill="#fdfdfd"/><path d="M863 461h-5c-3.084 6.458-10.595 10.387-16.4 14.289-14.782 9.935-29.861 16.936-46.6 23.03-57.956 21.101-127.259 14.793-180.089-16.949-16.034-9.633-32.259-20.955-43.53-36.295-9.878-13.445-19.827-29.642-23.783-46.075-6.004-24.941-2.663-51.148 8.532-74 4.567-9.321 10.062-17.957 16.624-26 3.858-4.729 9.779-8.972 11.246-15 5.16-.752 7.963-4.908 12.04-7.857 8.421-6.092 17.163-11.88 26.13-17.139 19.537-11.459 42.795-17.406 64.83-21.63 31.558-6.049 65.051-2.613 96 5.14 8.626 2.161 17.726 5.782 26.004 9.079 4.438 1.768 8.168 3.923 12.996 4.407 1.645 4.533 7.032 5.675 10.911 8.076 4.945 3.061 10.154 6.109 14.575 9.899 4.648 3.985 9.401 9.737 15.514 11.025v-92c0-3.573.465-7.575-1.303-10.829-2.571-4.734-7.548-7.408-11.697-10.507-9.138-6.824-18.367-12.73-27.996-18.729-42.79-26.659-92.924-44.716-143.004-51.224-34.244-4.45-68.345-7.995-103-5.621-13.149.9-26.094 3.477-39 5.585-3.979.65-8.032.028-12 .84C418.034 124.399 311.411 186.736 271.467 293c-9.046 24.064-14.123 49.21-14.448 75-.088 6.945 1.154 14.09 1.811 21 1.783 18.737 4.684 37.896 11.571 55.715 19.613 50.742 54.189 92.078 97.56 124.359 91.062 67.778 215.958 88.494 326.039 65.44 20.298-4.251 40.385-8.806 60-15.687 24.213-8.494 46.836-20.533 68.985-33.208 9.77-5.591 18.967-12.1 28.015-18.84 3.778-2.813 8.765-5.428 10.972-9.783 1.511-2.98 1.028-6.764 1.028-9.996v-86z" fill="#4d4d4d"/><path d="M393 526V314c0-7.359-1.609-16.92.514-24 1.68-5.605 7.264-10.525 11.501-14.281 23.638-20.957 62.867-11.144 74.659 18.451 9.74 24.444-4.703 56.425-30.675 63.084-5.678 1.456-12.158 2.782-17.999 1.977-3.13-.43-9.562-3.044-12.397-1.114C415.75 360.061 417 367.053 417 370v26c0 3.382-.879 8.367.858 11.427C420.656 412.356 433.198 411 438 411c21.823-.001 45.33-9.114 61.816-23.427 11.143-9.675 21.509-22.579 26.274-36.572 1.194-3.509 3.478-6.567 4.534-10.091 7.3-24.344 4.564-54.062-7.423-76.486-30.056-56.223-110.093-69.473-156.201-25.385-9.299 8.892-19.613 21.299-23.211 33.961-1.687 5.935-.789 12.885-.789 19v176c0 6.57-1.207 14.54.557 20.91 1.506 5.441 6.662 10.525 10.277 14.666C363.875 515.077 376.912 525.856 393 526z" fill="#fdfdfd"/><path d="M758 293v46c0 3.803-1.708 13.295 2.434 15.397 3.06 1.553 8.228.603 11.566.603h25c3.691 0 10.569-1.284 12.972 2.318C813.153 362.084 811 373.426 811 379v50c0 5.643-1.916 15.562.603 20.682 1.188 2.415 4.089 2.27 6.398 2.313 5.662.107 11.336.005 16.999.005h74v-97h55v-44c0-4.065 1.663-12.932-1.028-16.258-2.45-3.028-9.555-1.742-12.972-1.742H758z" fill="#4d4d4d"/></svg>